<svg width="32" height="32" fill="none" xmlns="http://www.w3.org/2000/svg"><mask id="a" fill="#fff"><path d="M10.668 7.667c-.547 0-1-.454-1-1v-4c0-.547.453-1 1-1 .547 0 1 .453 1 1v4c0 .546-.453 1-1 1Z"/></mask><path d="M10.668 5.667c.558 0 1 .442 1 1h-4c0 1.65 1.349 3 3 3v-4Zm1 1v-4h-4v4h4Zm0-4c0 .558-.442 1-1 1v-4c-1.651 0-3 1.348-3 3h4Zm-1 1c-.558 0-1-.442-1-1h4c0-1.652-1.349-3-3-3v4Zm-1-1v4h4v-4h-4Zm0 4c0-.558.442-1 1-1v4c1.651 0 3-1.35 3-3h-4Z" fill="#05AEB5" mask="url(#a)"/><mask id="b" fill="#fff"><path d="M21.332 7.667c-.547 0-1-.454-1-1v-4c0-.547.453-1 1-1 .547 0 1 .453 1 1v4c0 .546-.453 1-1 1Z"/></mask><path d="M21.332 5.667c.558 0 1 .442 1 1h-4c0 1.65 1.349 3 3 3v-4Zm1 1v-4h-4v4h4Zm0-4c0 .558-.442 1-1 1v-4c-1.651 0-3 1.348-3 3h4Zm-1 1c-.558 0-1-.442-1-1h4c0-1.652-1.349-3-3-3v4Zm-1-1v4h4v-4h-4Zm0 4c0-.558.442-1 1-1v4c1.651 0 3-1.35 3-3h-4Z" fill="#05AEB5" mask="url(#b)"/><path d="M11.333 19.333c-.173 0-.346-.04-.506-.106a1.376 1.376 0 0 1-.44-.28A1.377 1.377 0 0 1 10 18c0-.173.04-.347.107-.507.066-.16.16-.306.28-.44.133-.12.266-.213.44-.28.48-.2 1.08-.093 1.453.28.24.254.387.6.387.947 0 .08-.014.173-.027.267a.846.846 0 0 1-.08.24c-.027.08-.067.16-.12.24-.04.066-.107.133-.16.2a1.4 1.4 0 0 1-.947.386Zm4.668 0c-.173 0-.346-.04-.506-.106a1.378 1.378 0 0 1-.44-.28 1.377 1.377 0 0 1-.387-.947c0-.173.04-.347.107-.507.066-.16.16-.306.28-.44.133-.12.266-.213.44-.28a1.337 1.337 0 0 1 1.453.28c.24.254.387.6.387.947 0 .08-.014.173-.027.267a.85.85 0 0 1-.08.24c-.027.08-.067.16-.12.24-.04.066-.107.133-.16.2a1.4 1.4 0 0 1-.947.386Zm4.664 0c-.173 0-.346-.04-.506-.106a1.377 1.377 0 0 1-.44-.28l-.16-.2a1.012 1.012 0 0 1-.12-.24.846.846 0 0 1-.08-.24 1.916 1.916 0 0 1-.027-.267c0-.347.147-.693.387-.947.133-.12.266-.213.44-.28a1.332 1.332 0 0 1 1.453.28c.24.254.387.6.387.947 0 .08-.014.173-.027.267a.846.846 0 0 1-.08.24c-.027.08-.067.16-.12.24-.04.066-.107.133-.16.2a1.4 1.4 0 0 1-.947.386ZM11.333 24a1.32 1.32 0 0 1-.506-.107 1.54 1.54 0 0 1-.44-.28c-.24-.253-.387-.6-.387-.946 0-.174.04-.347.107-.507.066-.173.16-.32.28-.44.493-.493 1.4-.493 1.893 0 .24.253.387.6.387.947 0 .346-.147.693-.387.946-.253.24-.6.387-.947.387Zm4.668 0c-.346 0-.693-.147-.946-.387-.24-.253-.387-.6-.387-.946 0-.174.04-.347.107-.507.066-.173.16-.32.28-.44.493-.493 1.4-.493 1.893 0 .12.12.213.267.28.44.067.16.107.333.107.507 0 .346-.147.693-.387.946-.253.24-.6.387-.947.387Zm4.664 0c-.346 0-.693-.147-.946-.387a1.245 1.245 0 0 1-.28-.44 1.327 1.327 0 0 1-.107-.506c0-.174.04-.347.107-.507.066-.173.16-.32.28-.44a1.33 1.33 0 0 1 1.2-.36c.093.013.173.04.253.08.08.027.16.067.24.12.067.04.133.107.2.16.24.253.387.6.387.947 0 .346-.147.693-.387.946-.253.24-.6.387-.947.387Zm6.67-10.88H4.668c-.547 0-1-.453-1-1 0-.547.453-1 1-1h22.667c.546 0 1 .453 1 1 0 .547-.454 1-1 1Z" fill="#05AEB5"/><path d="M21.333 30.333H10.667C5.8 30.333 3 27.533 3 22.667V11.333c0-4.866 2.8-7.666 7.667-7.666h10.666c4.867 0 7.667 2.8 7.667 7.666v11.334c0 4.866-2.8 7.666-7.667 7.666ZM10.667 5.667C6.853 5.667 5 7.52 5 11.333v11.334c0 3.813 1.853 5.666 5.667 5.666h10.666c3.814 0 5.667-1.853 5.667-5.666V11.333c0-3.813-1.853-5.666-5.667-5.666H10.667Z" fill="#05AEB5"/></svg>