<svg width="33" height="32" fill="none" xmlns="http://www.w3.org/2000/svg"><path d="M22.5 0c-5.608 0-10 2.636-10 6v3.45a17.088 17.088 0 0 0-2-.117c-5.608 0-10 2.636-10 6V26c0 3.364 4.392 6 10 6 4.543 0 8.288-1.73 9.547-4.175.797.116 1.618.175 2.453.175 5.608 0 10-2.636 10-6V6c0-3.364-4.392-6-10-6Zm7.333 16.667C29.833 18.24 26.697 20 22.5 20c-.683 0-1.352-.047-2-.137v-2.646c.653.076 1.323.116 2 .116 2.925 0 5.52-.717 7.333-1.881v1.215ZM3.167 19.452c1.813 1.164 4.408 1.881 7.333 1.881s5.52-.717 7.333-1.881v1.215C17.833 22.24 14.697 24 10.5 24s-7.333-1.76-7.333-3.333v-1.215Zm26.666-8.119c0 1.574-3.136 3.334-7.333 3.334-.713 0-1.413-.051-2.088-.15-.257-1.182-1.067-2.245-2.275-3.097 1.312.373 2.79.58 4.363.58 2.925 0 5.52-.717 7.333-1.881v1.214ZM22.5 2.667c4.197 0 7.333 1.76 7.333 3.333 0 1.573-3.136 3.333-7.333 3.333S15.167 7.573 15.167 6c0-1.573 3.136-3.333 7.333-3.333ZM10.5 12c4.197 0 7.333 1.76 7.333 3.333 0 1.574-3.136 3.334-7.333 3.334s-7.333-1.76-7.333-3.334C3.167 13.76 6.303 12 10.5 12Zm0 17.333c-4.197 0-7.333-1.76-7.333-3.333v-1.215c1.813 1.164 4.408 1.882 7.333 1.882s5.52-.718 7.333-1.882V26c0 1.573-3.136 3.333-7.333 3.333Zm12-4c-.683 0-1.352-.046-2-.137v-2.645c.653.076 1.323.116 2 .116 2.925 0 5.52-.718 7.333-1.882V22c0 1.573-3.136 3.333-7.333 3.333Z" fill="#365F7B"/></svg>