<svg width="32" height="32" fill="none" xmlns="http://www.w3.org/2000/svg"><path d="M14.667 16a1.334 1.334 0 0 1 0 2.667h-4a1.333 1.333 0 1 1 0-2.667h4Zm8-4a1.333 1.333 0 0 0-1.334-1.333H10.667a1.333 1.333 0 1 0 0 2.666h10.666A1.333 1.333 0 0 0 22.667 12Zm-12-4h10.666a1.333 1.333 0 1 0 0-2.667H10.667a1.333 1.333 0 1 0 0 2.667Zm16 17.925v5.111a.961.961 0 0 1-1.642.68L24 30.692l-1.025 1.024a.962.962 0 0 1-1.642-.68v-5.11A5.315 5.315 0 0 1 24 16c.45.006.899.07 1.333.19V6.666a4 4 0 0 0-4-4H10.667a4 4 0 0 0-4 4v16a4 4 0 0 0 4 4h6.666a1.333 1.333 0 1 1 0 2.666h-6.666A6.674 6.674 0 0 1 4 22.667v-16A6.675 6.675 0 0 1 10.667 0h10.666A6.674 6.674 0 0 1 28 6.667v11.176a5.267 5.267 0 0 1-1.333 8.082Zm0-4.592a2.667 2.667 0 1 0-5.334 0 2.667 2.667 0 0 0 5.334 0Z" fill="#365F7B"/></svg>