<svg width="32" height="32" fill="none" xmlns="http://www.w3.org/2000/svg"><path d="M10.668 18.667H8V16c0-2.205 1.795-4 4-4h8c2.206 0 4 1.795 4 4v2.667h-2.666V16c0-.735-.598-1.333-1.334-1.333h-8c-.734 0-1.333.598-1.333 1.333v2.667Zm0-13.334A5.339 5.339 0 0 1 16 0a5.339 5.339 0 0 1 5.334 5.333A5.339 5.339 0 0 1 16 10.667a5.339 5.339 0 0 1-5.333-5.334Zm2.667 0A2.67 2.67 0 0 0 16 8a2.67 2.67 0 0 0 2.667-2.667A2.67 2.67 0 0 0 16 2.667a2.67 2.67 0 0 0-2.666 2.666Zm3.108 16h-.864l-1.046 4h-3.865v.82l2.95 1.642-1.16 3.622.64.483 2.911-2.25 2.898 2.24.673-.465-1.179-3.581 2.93-1.697v-.815h-3.844l-1.046-4 .002.001Zm-5.775.815v-.815H6.824l-1.045-4h-.864l-1.046 4H.005v.82l2.95 1.642-1.16 3.622.64.483 2.912-2.25 2.897 2.24.672-.465-1.179-3.581 2.93-1.697v.001Zm21.328-.815h-3.844l-1.045-4h-.864l-1.046 4h-3.865v.82l2.95 1.642-1.16 3.622.64.483 2.911-2.25 2.898 2.24.673-.465-1.179-3.581 2.93-1.697v-.815.001Z" fill="#365F7B"/></svg>