<svg width="58" height="53" fill="none" xmlns="http://www.w3.org/2000/svg"><path d="M29.49 47c-6.37-5.029-14.284-9.953-19.011-16.052-2.475-3.193-3.853-8.092-3.39-12.664.362-3.586 1.857-6.97 4.842-9.172 3.261-2.405 8.191-2.634 12.146-1.303 6.597 2.22 2.29 18.464 3.03 23.14.738-4.243 11.139-18.797 15.254-21.837 5.744-4.243 9.74 3.583 9.637 7.088-.33 11.31-15.45 21.444-21.914 30.8" stroke="#05AEB5" stroke-width="12" stroke-linecap="round" stroke-linejoin="round"/><path d="M17.998 13c-1.02 4.19-1 6.783-1 11 0 6.56-2.671 9.855 8.502 16" stroke="#05AEB5" stroke-width="11" stroke-linecap="round"/><path d="M44 18c-4.45 4.815-13 9.679-13 21" stroke="#05AEB5" stroke-width="9" stroke-linecap="round"/></svg>