<svg width="40" height="40" fill="none" xmlns="http://www.w3.org/2000/svg"><path d="M20 22.617a5.456 5.456 0 0 1-5.45-5.45c0-3.01 2.448-5.434 5.45-5.434 3 0 5.45 2.438 5.45 5.45 0 3.01-2.446 5.434-5.45 5.434Zm0-10.384a4.958 4.958 0 0 0-4.95 4.95 4.948 4.948 0 0 0 4.95 4.95 4.948 4.948 0 0 0 4.95-4.95 4.958 4.958 0 0 0-4.95-4.95Z" stroke="#05AEB5" stroke-width="2"/><path d="M5.79 14.106v-.001C7.514 6.518 14.129 3.083 20 3.083h.016c5.87 0 12.486 3.434 14.209 11.038 1.91 8.442-3.177 15.63-8.034 20.307A8.951 8.951 0 0 1 20 36.933a8.95 8.95 0 0 1-6.191-2.505C8.95 29.752 3.864 22.548 5.79 14.106Zm27.951.108v-.004C31.935 6.343 25.145 3.583 19.998 3.583c-5.148 0-11.921 2.76-13.708 10.628-1.926 8.4 3.368 15.514 7.881 19.843a8.376 8.376 0 0 0 11.671-.001c4.497-4.328 9.788-11.441 7.898-19.84Z" stroke="#05AEB5" stroke-width="2"/></svg>