<svg width="40" height="40" fill="none" xmlns="http://www.w3.org/2000/svg"><path d="M28.332 34.417H11.665c-2.851 0-4.965-.817-6.365-2.218-1.401-1.4-2.218-3.514-2.218-6.366V14.167c0-2.852.817-4.966 2.218-6.366 1.4-1.4 3.514-2.218 6.365-2.218h16.667c2.852 0 4.965.817 6.366 2.218 1.4 1.4 2.217 3.514 2.217 6.366v11.666c0 2.852-.817 4.966-2.217 6.366-1.4 1.4-3.514 2.218-6.366 2.218ZM11.665 6.083c-2.53 0-4.604.615-6.036 2.047-1.432 1.433-2.047 3.506-2.047 6.037v11.666c0 2.53.615 4.604 2.047 6.037 1.432 1.432 3.506 2.047 6.036 2.047h16.667c2.53 0 4.604-.615 6.036-2.047 1.432-1.433 2.047-3.506 2.047-6.037V14.167c0-2.53-.614-4.604-2.047-6.037-1.432-1.432-3.506-2.047-6.036-2.047H11.665Z" stroke="#05AEB5" stroke-width="2"/><path d="m16.73 19.358-.008-.006-5.212-4.163c-.124-.103-.12-.259-.053-.342.103-.126.26-.122.344-.054l.006.005 5.215 4.165h.001c.843.677 1.93.983 2.967.983 1.037 0 2.124-.306 2.966-.982h.001l5.215-4.166.007-.005c.108-.088.258-.057.322.027l.01.014.01.013c.089.109.058.258-.027.322l-.01.008-.01.008-5.217 4.167-.007.006-.006.005c-.86.712-2.04 1.087-3.246 1.087-1.205 0-2.389-.375-3.268-1.092Z" stroke="#05AEB5" stroke-width="2"/></svg>