<svg width="80" height="80" fill="none" xmlns="http://www.w3.org/2000/svg"><rect width="80" height="80" rx="40" fill="#365F7B"/><path d="M40 42.617a5.456 5.456 0 0 1-5.45-5.45c0-3.01 2.448-5.434 5.45-5.434 3 0 5.45 2.438 5.45 5.45 0 3.01-2.446 5.434-5.45 5.434Zm0-10.384a4.958 4.958 0 0 0-4.95 4.95 4.948 4.948 0 0 0 4.95 4.95 4.948 4.948 0 0 0 4.95-4.95 4.958 4.958 0 0 0-4.95-4.95Z" stroke="#fff" stroke-width="2"/><path d="M25.79 34.106v-.001c1.724-7.587 8.34-11.022 14.21-11.022h.016c5.87 0 12.486 3.435 14.209 11.038 1.91 8.442-3.177 15.63-8.034 20.307A8.951 8.951 0 0 1 40 56.933a8.951 8.951 0 0 1-6.191-2.505c-4.857-4.676-9.944-11.88-8.018-20.322Zm27.951.108v-.004c-1.805-7.867-8.595-10.627-13.742-10.627-5.148 0-11.922 2.76-13.708 10.628-1.926 8.4 3.367 15.514 7.881 19.843a8.376 8.376 0 0 0 11.671 0c4.497-4.33 9.788-11.442 7.898-19.84Z" stroke="#fff" stroke-width="2"/></svg>