<svg width="40" height="40" fill="none" xmlns="http://www.w3.org/2000/svg"><mask id="a" fill="#fff"><path d="M29.082 37.917c-1.883 0-3.867-.45-5.917-1.317-2-.85-4.016-2.017-5.983-3.433a52.016 52.016 0 0 1-5.617-4.784 49.79 49.79 0 0 1-4.783-5.6c-1.433-2-2.583-4-3.4-5.933-.867-2.067-1.3-4.067-1.3-5.95 0-1.3.233-2.533.683-3.683C3.232 6.033 3.982 4.933 5 3.983c1.283-1.266 2.75-1.9 4.316-1.9.65 0 1.317.15 1.884.417.65.3 1.2.75 1.6 1.35l3.866 5.45c.35.483.617.95.8 1.417.217.5.334 1 .334 1.483 0 .633-.184 1.25-.534 1.833-.25.45-.633.934-1.116 1.417l-1.134 1.183c.017.05.034.084.05.117.2.35.6.95 1.367 1.85a62.687 62.687 0 0 0 2.35 2.567c.983.966 1.8 1.733 2.567 2.366.95.8 1.566 1.2 1.933 1.384L23.25 25l1.216-1.2c.517-.517 1.017-.9 1.5-1.15.917-.567 2.084-.667 3.25-.183.434.183.9.433 1.4.783l5.534 3.933c.616.417 1.066.95 1.333 1.584.25.633.367 1.216.367 1.8 0 .8-.184 1.6-.534 2.35a7.76 7.76 0 0 1-1.333 2c-.95 1.05-1.983 1.8-3.183 2.283-1.15.467-2.4.717-3.717.717ZM9.315 4.583c-.916 0-1.766.4-2.583 1.2-.767.717-1.3 1.5-1.633 2.35a7.292 7.292 0 0 0-.517 2.767c0 1.55.367 3.233 1.1 4.967.75 1.766 1.8 3.6 3.133 5.433a46.126 46.126 0 0 0 4.517 5.3 46.93 46.93 0 0 0 5.317 4.533c1.8 1.317 3.65 2.384 5.483 3.15 2.85 1.217 5.517 1.5 7.717.584.85-.35 1.6-.884 2.283-1.65.383-.417.683-.867.933-1.4.2-.417.3-.85.3-1.284 0-.266-.05-.533-.183-.833-.05-.1-.15-.283-.467-.5l-5.533-3.933a4.775 4.775 0 0 0-.917-.517c-.366-.15-.516-.3-1.083.05-.333.167-.633.417-.967.75L24.95 26.8c-.65.633-1.65.783-2.417.5l-.45-.2c-.683-.367-1.483-.933-2.367-1.683A52.256 52.256 0 0 1 17 22.9a58.252 58.252 0 0 1-2.484-2.7c-.783-.917-1.35-1.7-1.7-2.35l-.2-.5c-.1-.383-.133-.6-.133-.833 0-.6.217-1.134.633-1.55l1.25-1.3c.334-.334.584-.65.75-.934.134-.216.184-.4.184-.566 0-.134-.05-.334-.134-.534a4.777 4.777 0 0 0-.533-.883l-3.867-5.467a1.536 1.536 0 0 0-.616-.516 2.087 2.087 0 0 0-.834-.184Zm14.117 20.4c-.083-.016.033-.033 0 0Z"/></mask><path d="m22.499 24.623-.45 1.167 1.866.72.45-1.167-1.866-.72Zm.666 11.977-.782 1.84.004.002.778-1.842Zm-5.983-3.433-1.184 1.611.007.006.008.005 1.169-1.622Zm-5.617-4.784-1.42 1.408.01.01.01.01 1.4-1.428Zm-4.783-5.6-1.626 1.165.007.009.006.008 1.613-1.182Zm-3.4-5.933-1.844.773.002.005 1.842-.778Zm-.617-9.633-1.86-.734-.002.005 1.862.729ZM5 3.983l1.365 1.462.02-.02.02-.018L5 3.983ZM11.2 2.5l-.852 1.81.007.003.007.003L11.2 2.5Zm1.6 1.35-1.664 1.11.016.024.017.023 1.63-1.157Zm3.866 5.45-1.63 1.157.005.008.006.008 1.62-1.173Zm.8 1.417-1.861.731.013.032.013.032 1.835-.795Zm-.2 3.316-1.715-1.029-.017.029-.016.029 1.748.971ZM16.15 15.45l-1.415-1.414-.015.015-.015.016 1.445 1.383Zm-1.134 1.183-1.444-1.383-.835.871.382 1.145 1.897-.633Zm.05.117-1.788.894.024.05.028.048 1.736-.992Zm1.367 1.85-1.522 1.297.008.01.009.01 1.505-1.317Zm2.35 2.567-1.43 1.399.014.013.014.014 1.402-1.426Zm2.567 2.366 1.288-1.53-.007-.006-.008-.006-1.273 1.542Zm1.933 1.384 1.857.742.684-1.708-1.646-.823-.895 1.789ZM23.25 25l-1.857-.743 3.261 2.167L23.25 25Zm1.216-1.2 1.405 1.424.01-.01-1.415-1.414Zm1.5-1.15.92 1.776.067-.035.065-.04-1.052-1.701Zm3.25-.183.78-1.842-.007-.003-.007-.003-.766 1.848Zm1.4.783 1.16-1.63-.007-.004-.006-.005-1.147 1.639Zm5.534 3.933-1.16 1.63.02.014.02.013 1.12-1.657Zm1.333 1.584 1.86-.735-.008-.02-.009-.021-1.843.776Zm-1.5 6.15-1.474-1.352-.009.01 1.483 1.342ZM32.799 37.2l-.748-1.855-.004.002.752 1.853ZM6.732 5.783l1.366 1.461.017-.016.017-.016-1.4-1.429Zm-1.633 2.35 1.854.75.004-.01.004-.01-1.862-.73Zm.583 7.734-1.842.779.001.002 1.841-.781Zm7.65 10.733-1.421 1.407.007.007.007.007 1.407-1.421Zm5.317 4.533 1.18-1.614-.001-.001-1.18 1.615Zm5.483 3.15.785-1.84-.007-.002-.006-.003-.772 1.845Zm7.717.584-.762-1.85-.008.003.77 1.847Zm2.283-1.65-1.472-1.354-.01.011-.011.012 1.493 1.33Zm.933-1.4-1.803-.866-.004.008-.004.009 1.811.849Zm.117-2.117 1.828-.812-.019-.042-.02-.04-1.789.894Zm-.467-.5-1.158 1.63.014.01.015.01 1.13-1.65Zm-5.533-3.933 1.159-1.63-.006-.005-.006-.004-1.147 1.639Zm-.917-.517.762-1.85-.004-.001-.758 1.851Zm-1.083.05.895 1.789.08-.04.076-.047-1.051-1.702Zm-.967.75 1.405 1.424.01-.01-1.415-1.414ZM24.95 26.8l1.395 1.433.01-.01L24.95 26.8Zm-2.417.5-.812 1.828.059.026.06.022.693-1.876Zm-.45-.2-.946 1.762.066.035.068.03.812-1.827Zm-2.367-1.683-1.299 1.52.005.004 1.294-1.524ZM17 22.9l-1.429 1.4.013.013.013.013L17 22.9Zm-2.484-2.7-1.52 1.3.007.008 1.513-1.308Zm-1.7-2.35-1.857.743.043.105.053.1 1.761-.948Zm-.2-.5-1.935.505.032.121.046.117 1.857-.743Zm.5-2.383 1.415 1.414.013-.014.014-.014-1.442-1.386Zm1.25-1.3-1.414-1.415-.014.014-.013.014 1.441 1.387Zm.75-.934-1.703-1.048-.01.017-.01.017 1.723 1.014Zm.05-1.1 1.847-.769-.007-.016-.007-.016-1.833.801Zm-.533-.883L13 11.905l.011.016.012.015 1.61-1.186Zm-3.867-5.467 1.633-1.155-.005-.007-1.628 1.162Zm-.616-.516.846-1.813-.022-.01-.023-.01-.801 1.833Zm13.283 20.216-.392 1.962 1.05.21.756-.758-1.414-1.414Zm5.65 10.934c-1.564 0-3.282-.374-5.138-1.16l-1.557 3.685c2.243.949 4.492 1.475 6.695 1.475v-4Zm-5.134-1.158c-1.843-.783-3.73-1.87-5.597-3.215l-2.338 3.245c2.067 1.49 4.213 2.735 6.37 3.652l1.565-3.682Zm-5.581-3.204a50.018 50.018 0 0 1-5.4-4.6l-2.802 2.856a54.016 54.016 0 0 0 5.833 4.967l2.369-3.223Zm-5.38-4.58a47.791 47.791 0 0 1-4.592-5.374L5.17 23.965a51.796 51.796 0 0 0 4.976 5.826l2.841-2.815Zm-4.58-5.357c-1.363-1.902-2.434-3.773-3.183-5.546L1.54 17.628c.884 2.094 2.113 4.223 3.616 6.32l3.252-2.33Zm-3.18-5.541c-.782-1.864-1.145-3.601-1.145-5.177h-4c0 2.191.504 4.454 1.456 6.723l3.688-1.547ZM4.081 10.9c0-1.057.189-2.042.546-2.955L.903 6.488A12.043 12.043 0 0 0 .082 10.9h4Zm.544-2.95c.352-.893.927-1.748 1.738-2.505l-2.73-2.923C2.41 3.664 1.485 5.01.903 6.482L4.627 7.95Zm1.778-2.543c.958-.946 1.936-1.324 2.911-1.324v-4c-2.158 0-4.113.89-5.721 2.477l2.81 2.847Zm2.911-1.324c.36 0 .735.087 1.032.227L12.05.69A6.507 6.507 0 0 0 9.315.083v4Zm1.046.233c.341.158.594.375.774.643l3.328-2.218A5.813 5.813 0 0 0 12.037.684L10.36 4.316Zm.806.691 3.867 5.45 3.263-2.314-3.867-5.45-3.262 2.314Zm3.879 5.466c.275.38.45.7.558.975l3.723-1.463a8.445 8.445 0 0 0-1.042-1.858l-3.24 2.346Zm.584 1.039c.13.298.169.527.169.688h4c0-.805-.194-1.576-.498-2.279l-3.67 1.59Zm.169.688c0 .232-.064.497-.249.804l3.43 2.058c.516-.859.819-1.827.819-2.862h-4Zm-.282.862c-.133.24-.385.577-.782.974l2.828 2.828c.57-.57 1.084-1.2 1.45-1.86l-3.496-1.942Zm-.813 1.005L13.57 15.25l2.889 2.767 1.133-1.184-2.889-2.766Zm-1.586 3.199c.064.193.136.332.159.378l3.577-1.788.014.03c.016.035.031.074.045.115l-3.795 1.265Zm.21.476c.278.485.757 1.187 1.582 2.155l3.044-2.594c-.708-.832-1.03-1.33-1.152-1.545l-3.473 1.984Zm1.599 2.175a64.586 64.586 0 0 0 2.426 2.649l2.858-2.798a60.652 60.652 0 0 1-2.274-2.485l-3.01 2.634Zm2.453 2.676c.995.978 1.86 1.793 2.695 2.482l2.547-3.084c-.698-.577-1.466-1.295-2.438-2.25l-2.804 2.852Zm2.68 2.47c1.005.847 1.76 1.359 2.328 1.643l1.788-3.578c-.165-.083-.644-.37-1.539-1.125l-2.577 3.06Zm1.365-.89-.033.084 3.714 1.486.033-.084-3.714-1.485Zm3.228 2.25 1.217-1.2-2.81-2.847-1.216 1.2 2.81 2.848Zm1.227-1.209c.417-.417.754-.658 1.004-.788l-1.837-3.552c-.717.37-1.38.896-1.996 1.512l2.829 2.828Zm1.137-.863c.329-.203.814-.293 1.433-.037l1.53-3.695c-1.714-.71-3.562-.6-5.066.33l2.103 3.402Zm1.42-.042c.303.128.646.31 1.031.58l2.294-3.277a9.587 9.587 0 0 0-1.767-.987l-1.559 3.684Zm1.02.571 5.533 3.933 2.317-3.26-5.533-3.933-2.317 3.26Zm5.572 3.96c.325.22.507.459.61.703l3.686-1.552c-.43-1.023-1.148-1.85-2.057-2.465L35.03 28.84Zm.593.661c.17.431.227.765.227 1.066h4c0-.867-.177-1.7-.507-2.535l-3.72 1.469Zm.227 1.066a3.56 3.56 0 0 1-.346 1.504l3.625 1.691a7.558 7.558 0 0 0 .72-3.195h-4Zm-.346 1.504a5.762 5.762 0 0 1-.995 1.494l2.948 2.703a9.758 9.758 0 0 0 1.672-2.506l-3.625-1.691Zm-1.004 1.504c-.774.855-1.564 1.414-2.448 1.77l1.495 3.71c1.517-.61 2.793-1.552 3.92-2.797l-2.967-2.683Zm-2.452 1.772c-.91.369-1.905.57-2.965.57v4c1.573 0 3.079-.3 4.469-.864l-1.504-3.706ZM9.315 2.583c-1.571 0-2.898.709-3.983 1.772l2.8 2.857c.548-.537.921-.629 1.183-.629v-4Zm-3.949 1.74c-.967.903-1.679 1.931-2.13 3.08l3.725 1.46c.216-.55.57-1.09 1.137-1.619L5.366 4.322Zm-2.122 3.06a9.29 9.29 0 0 0-.662 3.516h4c0-.75.126-1.41.371-2.018L3.244 7.384ZM2.582 10.9c0 1.862.44 3.81 1.258 5.746l3.684-1.559c-.648-1.53-.942-2.949-.942-4.187h-4Zm1.26 5.748c.816 1.924 1.945 3.889 3.356 5.828l3.235-2.352c-1.256-1.727-2.227-3.43-2.91-5.039l-3.682 1.563Zm3.356 5.828a48.103 48.103 0 0 0 4.713 5.531l2.842-2.814a44.11 44.11 0 0 1-4.32-5.07l-3.235 2.353Zm4.727 5.545a48.926 48.926 0 0 0 5.545 4.728l2.358-3.231a44.935 44.935 0 0 1-5.089-4.34l-2.814 2.843Zm5.543 4.727c1.909 1.396 3.895 2.545 5.892 3.38l1.544-3.69c-1.67-.698-3.383-1.682-5.075-2.919l-2.361 3.229Zm5.879 3.375c3.116 1.33 6.382 1.794 9.27.59L31.08 33.02c-1.512.63-3.58.527-6.163-.576l-1.57 3.679Zm9.263.593c1.148-.473 2.144-1.19 3.015-2.169l-2.986-2.661c-.495.555-1 .904-1.552 1.131l1.523 3.699Zm2.994-2.145a7.403 7.403 0 0 0 1.272-1.905l-3.622-1.698a3.406 3.406 0 0 1-.594.895l2.944 2.708Zm1.264-1.889a4.952 4.952 0 0 0 .497-2.149h-4c0 .12-.026.259-.103.418l3.606 1.731Zm.497-2.149a3.99 3.99 0 0 0-.355-1.645l-3.656 1.624a.345.345 0 0 1 .013.031v.001a.116.116 0 0 1-.002-.01c0-.004 0-.005 0 0h4Zm-.394-1.727c-.17-.34-.475-.811-1.126-1.257l-2.259 3.302c.02.013-.018-.01-.077-.08a.985.985 0 0 1-.079-.111c-.023-.038-.038-.068-.037-.066l3.578-1.788Zm-1.097-1.236-5.533-3.933-2.318 3.26 5.534 3.933 2.317-3.26Zm-5.545-3.942a6.77 6.77 0 0 0-1.302-.727l-1.523 3.698c.121.05.293.14.531.306l2.294-3.277Zm-1.306-.73-.08-.033c-.034-.015-.105-.047-.181-.078a2.751 2.751 0 0 0-.802-.193c-.78-.063-1.404.242-1.829.504l2.102 3.404c.063-.04.032-.012-.068.02a1.36 1.36 0 0 1-.528.059 1.273 1.273 0 0 1-.356-.078l.049.022.178.076 1.515-3.702Zm-2.735.113c-.617.309-1.096.734-1.487 1.125l2.829 2.828c.276-.276.397-.35.447-.375l-1.79-3.578Zm-1.477 1.115-1.267 1.25 2.81 2.848 1.266-1.25-2.81-2.848Zm-1.258 1.241a.286.286 0 0 1-.143.062.39.39 0 0 1-.185-.005l-1.386 3.752c1.426.527 3.256.274 4.505-.944l-2.791-2.864Zm-.209.105-.45-.2-1.624 3.656.45.2 1.624-3.656Zm-.316-.134c-.517-.278-1.199-.75-2.018-1.446l-2.59 3.05c.948.803 1.867 1.464 2.716 1.92l1.892-3.524Zm-2.014-1.442a50.25 50.25 0 0 1-2.612-2.422l-2.806 2.852a54.23 54.23 0 0 0 2.82 2.611l2.598-3.041ZM18.427 21.5a56.23 56.23 0 0 1-2.399-2.608l-3.026 2.616A60.168 60.168 0 0 0 15.57 24.3l2.857-2.8Zm-2.391-2.6c-.741-.867-1.206-1.527-1.46-1.998l-3.522 1.896c.447.829 1.115 1.735 1.94 2.701l3.042-2.598Zm-1.364-1.793-.2-.5-3.714 1.486.2.5 3.714-1.486Zm-.121-.262a3.099 3.099 0 0 1-.065-.281c-.004-.03-.004-.037-.004-.047h-4c0 .474.078.876.198 1.338l3.87-1.01Zm-.069-.328c0-.057.01-.082.012-.089a.144.144 0 0 1 .036-.047l-2.83-2.829a4.138 4.138 0 0 0-1.219 2.965h4Zm.075-.164 1.25-1.3-2.883-2.773-1.25 1.3 2.883 2.773Zm1.223-1.272c.42-.42.786-.87 1.06-1.334l-3.448-2.028c-.06.103-.195.287-.44.533l2.828 2.829Zm1.039-1.3a3.06 3.06 0 0 0 .48-1.614h-4c0-.123.02-.236.048-.33a.702.702 0 0 1 .065-.152l3.407 2.096Zm.48-1.614c0-.512-.158-.993-.287-1.303l-3.693 1.538c.007.017.007.022.004.008a1.24 1.24 0 0 1-.024-.243h4Zm-.301-1.335a6.746 6.746 0 0 0-.756-1.268l-3.22 2.372c.181.247.274.415.311.499l3.665-1.603Zm-.733-1.237-3.867-5.467-3.265 2.31 3.866 5.467 3.266-2.31Zm-3.872-5.474a3.535 3.535 0 0 0-1.399-1.167L9.303 6.58a.466.466 0 0 1-.165-.133l3.255-2.325ZM10.95 2.934a4.085 4.085 0 0 0-1.635-.35v4c-.015 0-.02-.002-.014-.001a.264.264 0 0 1 .046.016l1.603-3.665Zm12.874 20.088a1.97 1.97 0 0 1 .75.33 1.994 1.994 0 0 1 .516 2.69 1.993 1.993 0 0 1-1.394.902 1.952 1.952 0 0 1-1.264-.246 1.993 1.993 0 0 1-.414-3.129l2.828 2.829a2.025 2.025 0 0 0 .589-1.305 2.006 2.006 0 0 0-1.82-2.12 2.044 2.044 0 0 0-1.178.243 2.007 2.007 0 0 0-.902 2.474 2.006 2.006 0 0 0 1.117 1.138c.174.072.322.103.388.117l.784-3.923Z" fill="#05AEB5" mask="url(#a)"/></svg>