<svg width="32" height="32" fill="none" xmlns="http://www.w3.org/2000/svg"><path d="M16 2.667C8.64 2.667 2.666 8.64 2.666 16S8.64 29.334 16 29.334c7.36 0 13.333-5.974 13.333-13.334C29.333 8.64 23.36 2.667 16 2.667Zm6.186 9.067c-.2 2.106-1.066 7.226-1.506 9.586-.187 1-.56 1.334-.907 1.374-.773.066-1.36-.507-2.107-1-1.173-.774-1.84-1.254-2.973-2-1.32-.867-.466-1.347.293-2.12.2-.2 3.614-3.307 3.68-3.587a.267.267 0 0 0-.066-.24c-.08-.067-.187-.04-.28-.027-.12.027-1.987 1.267-5.627 3.72-.533.36-1.013.547-1.44.534-.48-.014-1.386-.267-2.066-.494-.84-.266-1.494-.413-1.44-.88.026-.24.36-.48.986-.733 3.893-1.693 6.48-2.813 7.773-3.347 3.707-1.546 4.467-1.813 4.974-1.813.107 0 .36.027.52.16a.53.53 0 0 1 .186.36c-.013.08.014.32 0 .507Z" fill="#fff"/></svg>