<svg width="32" height="32" fill="none" xmlns="http://www.w3.org/2000/svg"><path d="M16.001 2.667c7.364 0 13.334 5.97 13.334 13.333 0 7.364-5.97 13.334-13.334 13.334a13.272 13.272 0 0 1-6.706-1.807l-6.622 1.807 1.803-6.624A13.27 13.27 0 0 1 2.668 16c0-7.364 5.97-13.333 13.333-13.333Zm-4.544 7.067-.266.01a1.28 1.28 0 0 0-.496.134 1.722 1.722 0 0 0-.392.304c-.16.15-.251.281-.348.408a3.64 3.64 0 0 0-.755 2.237c.003.653.173 1.29.44 1.884.545 1.203 1.443 2.476 2.627 3.656.285.284.565.57.866.835a12.6 12.6 0 0 0 5.12 2.728l.758.116c.246.013.493-.006.741-.018.388-.02.768-.125 1.11-.308a6.42 6.42 0 0 0 .511-.293s.058-.037.167-.12c.18-.133.29-.228.44-.384.11-.115.207-.25.28-.403.104-.217.208-.632.25-.977.033-.264.023-.408.02-.497-.006-.143-.125-.291-.254-.354l-.776-.348s-1.16-.505-1.87-.828a.663.663 0 0 0-.234-.054.642.642 0 0 0-.504.169c-.007-.003-.096.073-1.06 1.241a.466.466 0 0 1-.49.174 1.91 1.91 0 0 1-.255-.088c-.166-.07-.223-.096-.336-.144a8.033 8.033 0 0 1-2.1-1.338c-.168-.146-.324-.306-.484-.461a8.396 8.396 0 0 1-1.36-1.69l-.079-.127a1.233 1.233 0 0 1-.136-.274c-.05-.196.081-.353.081-.353s.324-.355.475-.547c.147-.186.27-.368.35-.497.158-.253.207-.513.125-.715-.374-.912-.76-1.82-1.158-2.721-.078-.179-.312-.307-.524-.332a5.91 5.91 0 0 0-.216-.021 4.512 4.512 0 0 0-.537.005l.27-.01Z" fill="#fff"/></svg>