<svg width="353" height="403" viewBox="0 0 353 403" fill="none" xmlns="http://www.w3.org/2000/svg">
<path d="M142.977 193.248C153.592 181.784 163.744 174.549 179.847 175.575C199.321 176.815 196.22 204.263 189.421 216.638C177.114 239.039 148.023 240.314 125.754 237.888C112.163 236.407 89.8107 234.318 84.7156 218.871C75.4497 190.78 93.1875 152.866 107.792 129.942C124.282 104.061 146.47 90.8198 176.592 88.8366C204.055 87.0285 222.568 98.7761 240.505 119.267C257.21 138.35 270.053 155.407 264.873 181.562C253.907 236.936 227.157 306.329 161.426 310.949C135.518 312.77 108.015 307.666 83.051 301.177C67.2251 297.064 49.4182 293.577 37.6932 281.098C29.8694 272.771 27.2537 259.736 25.2745 248.897C20.7612 224.179 19.2111 197.499 22.8029 172.559C28.4346 133.454 49.7645 91.3119 77.1421 63.0384C98.5379 40.9424 127.687 28.0982 157.654 22.0522C183.036 16.9315 210.027 24.3851 234.394 30.9141C296.676 47.6025 331.972 114.072 332.312 176.042C332.458 202.552 322.882 228.768 316.078 254.161C309.812 277.545 293.851 298.868 280.897 319.183C268.371 338.829 249.727 344.895 231.356 357.145C211.369 370.473 184.239 376.522 161.034 381.141C152.186 382.902 141.586 382.366 132.79 380.65C124.624 379.057 116.511 379.779 108.423 377.612C96.7536 374.485 84.6469 374.638 73.2086 371.573" stroke="white" stroke-opacity="0.2" stroke-width="40" stroke-linecap="round"/>
</svg>