<svg width="155" height="44" viewBox="0 0 155 44" fill="none" xmlns="http://www.w3.org/2000/svg">
<g clip-path="url(#clip0_255_2388)">
<path d="M50.5619 0.081543H64.1309C73.594 0.081543 79.7724 4.39495 79.7724 13.5459V13.7876C79.7724 22.9789 73.3204 27.0504 64.2874 27.0504H58.3827V43.6187H50.5227V0.081543H50.5619ZM64.17 21.2051C69.3708 21.2051 72.1472 18.5848 72.1472 13.7876V13.5459C72.1472 8.38586 69.1753 6.37025 64.17 6.37025H58.4608V21.2051H64.17Z" fill="#3E4042"/>
<path d="M100.106 43.5784H85.0508V0.081543H111.563V6.45088H92.8325V17.4561H100.262C109.53 17.4561 115.2 21.5276 115.2 30.2351V30.477C115.239 38.9021 109.803 43.5784 100.106 43.5784ZM99.8711 37.3704C105.072 37.3704 107.653 34.9516 107.653 30.4367V30.1948C107.653 25.7604 105.072 23.3014 99.5582 23.3014H92.8325V37.3704H99.8711Z" fill="#3E4042"/>
<path d="M120.909 0.0806244H128.769V19.7933L144.959 0H153.405L135.925 20.8011L154.305 43.5775H145.036L128.808 23.2601V43.5775H120.948V0.0806244H120.909Z" fill="#3E4042"/>
<path d="M38.752 0.081543H0V39.91L38.752 0.081543Z" fill="#3E4042"/>
<path d="M3.48022 43.6139H42.2322V3.74512L3.48022 43.6139Z" fill="#3E4042"/>
</g>
<defs>
<clipPath id="clip0_255_2388">
<rect width="155" height="44" fill="white"/>
</clipPath>
</defs>
</svg>
