<svg width="164" height="64" viewBox="0 0 164 64" fill="none" xmlns="http://www.w3.org/2000/svg">
<mask id="mask0_255_2381" style="mask-type:luminance" maskUnits="userSpaceOnUse" x="0" y="0" width="164" height="64">
<path d="M0 0.5H164V63.5H0V0.5Z" fill="white"/>
</mask>
<g mask="url(#mask0_255_2381)">
<path d="M22.939 39.7697C24.6854 39.7697 26.1042 38.3609 26.1042 36.6261V33.9875C26.1042 33.67 26.3625 33.4134 26.6822 33.4134H40.3022C40.6219 33.4134 40.8802 33.67 40.8802 33.9875V36.6301C40.8802 46.4679 32.8486 54.4447 22.943 54.4447C13.0377 54.4447 5.00602 46.4679 5.00602 36.6301V30.1559C5.0061 30.0804 4.99121 30.0058 4.96219 29.9361C4.93317 29.8664 4.8906 29.8031 4.83691 29.7497C4.78321 29.6964 4.71946 29.6541 4.6493 29.6253C4.57913 29.5965 4.50393 29.5817 4.428 29.5818H0.578023C0.502093 29.5819 0.426893 29.5671 0.356727 29.5383C0.286561 29.5094 0.222808 29.4672 0.169118 29.4138C0.115427 29.3605 0.0728533 29.2972 0.0438338 29.2275C0.0148143 29.1578 -8.10942e-05 29.0831 3.32041e-07 29.0077V18.6407C3.32041e-07 18.3232 0.258378 18.0666 0.578023 18.0666H4.42367C4.49962 18.0667 4.57486 18.052 4.64506 18.0232C4.71526 17.9944 4.77905 17.9521 4.83277 17.8988C4.8865 17.8454 4.9291 17.7821 4.95814 17.7124C4.98718 17.6427 5.00208 17.568 5.002 17.4925V10.9369C5.002 10.6191 5.26007 10.3628 5.58002 10.3628H19.1957C19.5157 10.3628 19.7738 10.6191 19.7738 10.9369V17.4925C19.7738 17.81 20.0321 18.0666 20.3521 18.0666H36.9238C37.2435 18.0666 37.5018 18.3232 37.5018 18.6407V29.0034C37.502 29.0789 37.4871 29.1536 37.4581 29.2233C37.4291 29.293 37.3865 29.3564 37.3328 29.4097C37.2791 29.4631 37.2154 29.5054 37.1452 29.5342C37.075 29.5631 36.9998 29.5779 36.9238 29.5778H20.3521C20.2761 29.5777 20.2009 29.5924 20.1307 29.6212C20.0605 29.65 19.9967 29.6923 19.943 29.7456C19.8893 29.799 19.8467 29.8623 19.8176 29.932C19.7886 30.0017 19.7737 30.0764 19.7738 30.1519V36.6261C19.7738 38.3609 21.1922 39.7697 22.939 39.7697ZM61.1992 39.7697C62.946 39.7697 64.3644 38.3609 64.3644 36.6261V18.6407C64.3644 18.3232 64.6228 18.0666 64.9424 18.0666H78.8413C79.1693 18.0666 79.4317 18.3435 79.4153 18.6693L79.1365 36.6261C79.1365 46.4636 71.1048 54.4407 61.1992 54.4407C51.2939 54.4407 43.2623 46.4636 43.2623 36.6261V18.6407C43.2623 18.3232 43.5206 18.0666 43.8403 18.0666H57.456C57.776 18.0666 58.034 18.3232 58.034 18.6407V36.6261C58.034 38.3609 59.4528 39.7697 61.1992 39.7697Z" fill="#8E9092"/>
<path d="M101.3 29.8589L99.5661 36.8463C99.1765 38.2674 100.206 39.725 101.69 39.7659C102.655 39.7926 103.601 39.4963 104.375 38.9247C105.15 38.353 105.709 37.5392 105.962 36.614L106.725 33.8291C106.758 33.7076 106.831 33.6004 106.931 33.5239C107.032 33.4474 107.155 33.4058 107.282 33.4056H120.857C120.946 33.4056 121.033 33.426 121.113 33.4651C121.193 33.5042 121.262 33.561 121.316 33.6311C121.37 33.7012 121.407 33.7827 121.424 33.8693C121.441 33.9558 121.438 34.0451 121.415 34.1303L119.75 40.1973C117.442 48.6018 109.755 54.4366 100.981 54.4366C90.3988 54.4366 82.7115 44.4445 85.4952 34.3014L86.4504 30.1603C86.4734 30.0752 86.4765 29.986 86.4593 29.8995C86.4421 29.813 86.4051 29.7316 86.3513 29.6616C86.2974 29.5915 86.228 29.5347 86.1485 29.4955C86.0691 29.4563 85.9816 29.4357 85.8928 29.4354H82.1867C82.0979 29.4354 82.0103 29.415 81.9307 29.3759C81.851 29.3368 81.7816 29.28 81.7276 29.2099C81.6737 29.1398 81.6368 29.0583 81.6197 28.9717C81.6026 28.8852 81.6058 28.7959 81.6291 28.7107L84.4744 18.3437C84.5078 18.2222 84.5805 18.115 84.6812 18.0385C84.782 17.962 84.9052 17.9205 85.032 17.9202H89.3656C89.4924 17.9201 89.6157 17.8786 89.7164 17.802C89.8172 17.7255 89.8898 17.6183 89.9232 17.4967L92.014 10.6276C92.0475 10.5061 92.1202 10.3989 92.2209 10.3224C92.3216 10.2459 92.4448 10.2043 92.5716 10.2041H106.147C106.235 10.2041 106.323 10.2245 106.403 10.2636C106.482 10.3027 106.552 10.3595 106.606 10.4296C106.66 10.4997 106.696 10.5812 106.714 10.6677C106.731 10.7543 106.727 10.8436 106.704 10.9288L104.777 17.1956C104.754 17.2807 104.751 17.3699 104.768 17.4563C104.785 17.5428 104.822 17.6241 104.876 17.6941C104.93 17.7641 104.999 17.8209 105.079 17.8601C105.158 17.8993 105.246 17.9199 105.335 17.9202H121.849C121.938 17.9202 122.025 17.9406 122.105 17.9797C122.185 18.0188 122.254 18.0756 122.308 18.1457C122.362 18.2158 122.399 18.2973 122.416 18.3839C122.433 18.4704 122.43 18.5597 122.407 18.6449L119.561 29.0119C119.528 29.1334 119.455 29.2406 119.355 29.3171C119.254 29.3936 119.131 29.4351 119.004 29.4354H101.862C101.596 29.4394 101.37 29.6106 101.3 29.8589ZM149.286 18.4089L144.234 36.8258C144.003 37.6712 143.498 38.4176 142.797 38.9496C142.096 39.4817 141.238 39.7699 140.356 39.7698C138.716 39.7698 137.523 38.2185 137.954 36.6466L142.878 18.71C142.901 18.6249 142.904 18.5357 142.886 18.4493C142.869 18.3628 142.832 18.2815 142.778 18.2115C142.724 18.1415 142.655 18.0847 142.576 18.0455C142.496 18.0063 142.409 17.9857 142.32 17.9854H128.745C128.487 17.9854 128.257 18.1565 128.187 18.4089L123.637 34.9975C120.951 44.7865 128.372 54.4366 138.589 54.4366C147.789 54.4366 155.854 48.3206 158.273 39.5009L163.98 18.706C164.003 18.6209 164.006 18.5317 163.988 18.4453C163.971 18.3588 163.934 18.2775 163.88 18.2075C163.827 18.1375 163.757 18.0807 163.678 18.0415C163.598 18.0023 163.511 17.9817 163.422 17.9814H149.847C149.585 17.9894 149.355 18.1605 149.286 18.4089Z" fill="#3E4042"/>
</g>
</svg>
