<svg width="265" height="60" viewBox="0 0 265 60" fill="none" xmlns="http://www.w3.org/2000/svg">
<g clip-path="url(#clip0_255_2395)">
<mask id="mask0_255_2395" style="mask-type:luminance" maskUnits="userSpaceOnUse" x="0" y="0" width="265" height="60">
<path d="M265 0H0V60H265V0Z" fill="white"/>
</mask>
<g mask="url(#mask0_255_2395)">
<path d="M0 8.82373H45.3289V32.1904C45.3289 38.1823 42.1753 43.7065 37.0477 46.7137L22.6645 55.2897L8.29644 46.7137C3.16893 43.7289 0.0220062 38.1823 0.0220062 32.1904V8.82373H0Z" fill="#BBBBBB"/>
<path fill-rule="evenodd" clip-rule="evenodd" d="M12.2039 21.1196V28.3812C13.1942 27.2675 14.9767 26.5101 17.0013 26.5101H19.2239V34.9525C19.2239 37.2021 18.6298 39.1623 17.7275 40.2538H27.5983C26.696 39.1623 26.1512 37.2021 26.1512 34.9525V26.5101H28.3131C30.3597 26.5101 32.1566 27.2675 33.1249 28.3812V21.1196H12.2039Z" fill="#333333"/>
<path d="M252.796 20.0825H247.566V22.0394C240.238 22.1991 235.362 25.3403 235.362 30.8838C235.362 36.4271 240.238 39.3249 247.566 39.4844V41.4415H252.796V39.4844C260.164 39.3249 265.024 36.4271 265.024 30.8838C265.024 25.3403 260.164 22.1991 252.796 22.0394V20.0825ZM247.566 35.3269C243.542 35.1672 241.272 33.4959 241.272 30.8838C241.272 28.2716 243.533 26.3986 247.566 26.239V35.3269ZM252.796 26.239C256.862 26.3986 259.067 28.2799 259.067 30.8838C259.067 33.4874 256.862 35.1672 252.796 35.3269V26.239Z" fill="#333333"/>
<path d="M221.414 20.0825H216.184V22.0394C208.857 22.1991 203.98 25.3403 203.98 30.8838C203.98 36.4271 208.857 39.3249 216.184 39.4844V41.4415H221.414V39.4844C228.782 39.3249 233.643 36.4271 233.643 30.8838C233.643 25.3403 228.782 22.1991 221.414 22.0394V20.0825ZM216.184 35.3269C212.16 35.1672 209.89 33.4959 209.89 30.8838C209.89 28.2716 212.152 26.3986 216.184 26.239V35.3269ZM221.414 26.239C225.48 26.3986 227.686 28.2799 227.686 30.8838C227.686 33.4874 225.48 35.1672 221.414 35.3269V26.239Z" fill="#333333"/>
<path d="M189.728 20.6533C181.879 20.6533 177.165 25.1385 177.165 30.9253C177.165 36.7123 181.879 41.1975 189.728 41.1975C197.577 41.1975 202.249 36.7123 202.249 30.9253C202.249 25.1385 197.537 20.6533 189.728 20.6533ZM189.728 36.4688C185.819 36.4688 183.323 34.1087 183.323 30.9253C183.323 27.7421 185.819 25.424 189.728 25.424C193.637 25.424 196.133 27.7506 196.133 30.9253C196.133 34.1002 193.595 36.4688 189.728 36.4688Z" fill="#333333"/>
<path d="M162.608 33.252L169.578 40.5928H177.353L167.644 30.4886L176.987 21.1992H169.661L162.616 28.498H161.006V21.1992H155.165V40.6013H161.006V33.2605H162.616L162.608 33.252Z" fill="#333333"/>
<path d="M144.333 40.5845C145.66 40.5845 146.872 40.4585 148 40.1394C151.021 39.2827 152.995 36.7966 152.995 33.4117C152.995 30.0268 151.303 27.9522 148.606 26.9276C147.32 26.4404 145.785 26.3984 144.341 26.3984H138.342V21.1826H132.5V40.5845H144.341H144.333ZM143.329 30.9676C144.133 30.9676 144.897 30.9676 145.586 31.2111C146.548 31.5386 147.112 32.3534 147.112 33.3277C147.112 34.302 146.548 35.2007 145.619 35.6123C144.972 35.8978 144.333 35.8978 143.32 35.8978H138.325V30.9676H143.32H143.329Z" fill="#333333"/>
<path d="M123.173 33.3746V40.5894H129.013V21.1875H123.173V28.865H113.934V21.1875H108.092V40.5894H113.934V33.3746H123.173Z" fill="#333333"/>
<path d="M89.526 32.4711V21.1826H83.6843V40.5845H88.8372L98.7649 29.2962V40.5845H104.605V21.1826H99.4449L89.526 32.4711Z" fill="#333333"/>
<path d="M73.7468 40.5892V26.4709H81.9408V21.1768H59.2764V26.4709H67.4704V40.5892H73.7468Z" fill="#333333"/>
</g>
</g>
<defs>
<clipPath id="clip0_255_2395">
<rect width="265" height="60" fill="white"/>
</clipPath>
</defs>
</svg>
