<svg width="64" height="56" viewBox="0 0 64 56" fill="none" xmlns="http://www.w3.org/2000/svg">
<path d="M49.6263 25.8174C54.2099 25.8174 57.6607 23.9652 60.205 20.7408L56.8045 18.2243C55.9644 19.298 54.8791 20.1679 53.6334 20.7653C52.3878 21.3626 51.0161 21.6712 49.6263 21.667C44.6519 21.667 41.047 17.7361 41.047 12.9129C41.047 8.08962 44.5928 3.93748 49.7683 3.93748C52.0685 3.93748 53.6946 4.46425 55.113 5.31648V9.55754H59.392V3.37379L58.5723 2.74799C56.2197 0.952905 52.6272 0 49.6247 0C42.2839 0 36.3131 5.79126 36.3131 12.9112C36.3131 20.0245 42.2822 25.8174 49.6263 25.8174ZM58.5048 51.2841L58.3524 45.3402V30.8352H49.4274V34.9874H53.8451V44.8285C53.8451 49.0681 50.5067 52.0693 47.1388 52.0693C43.7715 52.0693 42.0141 49.8043 42.0141 45.5667V30.8336H33.6768V34.9858H37.5064V46.2863C37.5064 52.0373 40.8308 56 46.7603 56C50.1677 56 52.7621 54.1662 54.3102 51.3396H54.3794L54.9902 55.2921H61.8482V51.289H58.51V51.2808L58.5048 51.2841ZM35.3271 0.609H27.8893L21.4204 18.8283H21.3201L14.8856 0.609H6.96026V4.76285H11.4176L19.0888 25.5288H23.1638V25.5236L31.1637 4.76453H35.3235V0.610689L35.3271 0.609ZM0 55.3457H4.40723V51.0727H0.00172969L0 55.3457ZM17.0201 35.6501H16.9717L16.6949 30.8352H8.8283V34.6201H13.0141V51.2857H8.8283V55.2902H28.27V51.3646H17.4456V41.3072C17.9351 37.6668 20.7493 34.5581 24.589 34.5581H24.6583L24.5805 38.2788H28.8597V30.7664H25.4765C21.602 30.7564 18.7273 32.7899 17.0184 35.6517L17.0201 35.6501Z" fill="#3E4042"/>
</svg>
