<svg width="208" height="86" viewBox="0 0 208 86" fill="none" xmlns="http://www.w3.org/2000/svg">
<mask id="mask0_255_2414" style="mask-type:luminance" maskUnits="userSpaceOnUse" x="0" y="17" width="208" height="52">
<path d="M208 17.2002H0V68.8002H208V17.2002Z" fill="white"/>
</mask>
<g mask="url(#mask0_255_2414)">
<path d="M22.7418 54.2868C21.6276 53.938 20.653 53.4496 19.8174 52.8914C18.9819 52.2636 18.2855 51.5657 17.7983 50.7984C17.241 49.9612 16.8233 49.124 16.5449 48.147H21.001C21.4885 49.124 22.2544 49.8217 23.2294 50.2403C24.204 50.6589 25.3182 50.8681 26.6411 50.8681C28.0338 50.8681 29.2175 50.5892 30.0529 50.1005C30.8886 49.5426 31.376 48.8447 31.376 48.0075C31.376 47.1703 31.0974 46.5423 30.4708 46.1237C29.8441 45.7051 28.9389 45.426 27.6161 45.2865L23.7166 44.8678C22.533 44.7285 21.5584 44.5191 20.7227 44.1702C19.8871 43.8212 19.1907 43.333 18.7033 42.7746C18.1463 42.2167 17.7983 41.5889 17.5196 40.8213C17.241 40.1237 17.1716 39.2864 17.1716 38.4492C17.1716 37.4026 17.3805 36.4257 17.7983 35.5884C18.216 34.7512 18.8427 33.9837 19.6085 33.3557C20.3744 32.7279 21.3494 32.2396 22.3938 31.8907C23.5078 31.5419 24.6917 31.3325 26.0842 31.3325C27.4765 31.3325 28.7299 31.5419 29.8441 31.8907C30.9582 32.2396 31.9331 32.7977 32.6988 33.4258C33.5344 34.0536 34.2307 34.7512 34.7183 35.5884C35.2752 36.4257 35.6929 37.1932 35.9018 38.0306H31.4454C31.0974 37.1932 30.3317 36.5654 29.3566 36.0767C28.3121 35.5884 27.1982 35.3793 26.0143 35.3793C24.5521 35.3793 23.4383 35.6581 22.6721 36.2861C21.9761 36.8443 21.5584 37.5419 21.5584 38.3791C21.5584 39.1467 21.8367 39.705 22.3938 40.1237C22.9507 40.5423 23.7166 40.8213 24.7611 40.9609L28.8695 41.3795C31.0277 41.5889 32.6988 42.2863 33.9522 43.4725C35.2055 44.6584 35.7626 46.054 35.7626 47.8682C35.7626 48.775 35.5538 49.6819 35.2055 50.5191C34.8575 51.3563 34.2307 52.1239 33.465 52.7519C32.6988 53.3799 31.7242 53.938 30.61 54.2868C29.496 54.6357 28.1033 54.8449 26.6411 54.8449C25.1789 54.8449 23.856 54.6357 22.7418 54.2868Z" fill="#3E4042"/>
<path d="M48.644 41.1H59.7152V45.0771H48.644V50.4493H59.924V54.4263H44.2573V31.8208H59.924V35.7977H48.644V41.1Z" fill="#3E4042"/>
<path d="M86.3835 35.7977H79.1421V54.3565H74.7554V35.7977H67.4443V31.8208H86.4532V35.7977H86.3835Z" fill="#3E4042"/>
<path d="M112.843 35.7977H105.601V54.3565H101.214V35.7977H93.9033V31.8208H112.912V35.7977H112.843Z" fill="#3E4042"/>
<path d="M125.307 41.1H136.378V45.0771H125.307V50.4493H136.587V54.4263H120.92V31.8208H136.587V35.7977H125.307V41.1Z" fill="#3E4042"/>
<path d="M158.938 45.5654C159.425 45.4955 159.912 45.3562 160.4 45.1468C161.375 44.7978 162.21 44.2397 162.837 43.6117C163.464 42.9839 163.951 42.2165 164.23 41.3793C164.508 40.5421 164.717 39.6348 164.717 38.7279C164.717 37.8211 164.578 36.9138 164.23 36.0766C163.951 35.2393 163.464 34.472 162.837 33.8442C162.21 33.2162 161.375 32.7277 160.4 32.3089C159.425 31.9604 158.241 31.751 156.919 31.751H145.847V54.2864H150.234V45.7049H153.924L160.678 54.3565H165.831L158.938 45.5654ZM150.304 41.7979V35.7975H156.64C157.754 35.7975 158.659 36.0766 159.286 36.565C159.912 37.1232 160.261 37.8211 160.261 38.7279C160.261 39.6348 159.912 40.3327 159.286 40.8906C158.659 41.449 157.754 41.7278 156.64 41.7278H150.304V41.7979Z" fill="#3E4042"/>
<path d="M178.364 54.2868C177.25 53.938 176.276 53.4496 175.44 52.8914C174.604 52.2636 173.908 51.5657 173.421 50.7984C172.864 49.9612 172.446 49.124 172.167 48.147H176.624C177.111 49.124 177.877 49.8217 178.852 50.2403C179.827 50.6589 180.941 50.8681 182.264 50.8681C183.656 50.8681 184.84 50.5892 185.675 50.1005C186.511 49.5426 186.999 48.8447 186.999 48.0075C186.999 47.1703 186.72 46.5423 186.093 46.1237C185.467 45.7051 184.561 45.426 183.238 45.2865L179.339 44.8678C178.156 44.7285 177.181 44.5191 176.345 44.1702C175.51 43.8212 174.813 43.333 174.326 42.7746C173.769 42.2167 173.421 41.5889 173.142 40.8213C172.864 40.1237 172.794 39.2864 172.794 38.4492C172.794 37.4026 173.003 36.4257 173.421 35.5884C173.839 34.7512 174.465 33.9837 175.231 33.3557C175.997 32.7279 176.972 32.2396 178.016 31.8907C179.13 31.5419 180.314 31.3325 181.707 31.3325C183.099 31.3325 184.352 31.5419 185.467 31.8907C186.581 32.2396 187.555 32.7977 188.321 33.4258C189.157 34.0536 189.853 34.7512 190.341 35.5884C190.898 36.4257 191.315 37.1932 191.524 38.0306H187.068C186.72 37.1932 185.954 36.5654 184.979 36.0767C183.935 35.5884 182.821 35.3793 181.637 35.3793C180.175 35.3793 179.061 35.6581 178.295 36.2861C177.598 36.8443 177.181 37.5419 177.181 38.3791C177.181 39.1467 177.459 39.705 178.016 40.1237C178.573 40.5423 179.339 40.8213 180.383 40.9609L184.492 41.3795C186.65 41.5889 188.321 42.2863 189.575 43.4725C190.828 44.6584 191.385 46.054 191.385 47.8682C191.385 48.775 191.176 49.6819 190.828 50.5191C190.48 51.3563 189.853 52.1239 189.088 52.7519C188.321 53.3799 187.347 53.938 186.232 54.2868C185.119 54.6357 183.726 54.8449 182.264 54.8449C180.801 54.8449 179.479 54.6357 178.364 54.2868Z" fill="#3E4042"/>
<path d="M-0.44458 16.96V69.2873H208.445V16.96H-0.44458ZM204.476 65.3105H3.52431V20.9369H204.476V65.3105Z" fill="#3E4042"/>
</g>
</svg>
