<svg width="355" height="432" viewBox="0 0 355 432" fill="none" xmlns="http://www.w3.org/2000/svg">
<g clip-path="url(#clip0_2003_7979)">
<path d="M393.536 66.0847C351.698 99.4782 300.449 116.451 251.371 130.423C243.962 132.532 236.553 134.704 229.045 136.256C226.221 136.84 216.763 140.797 217.775 133.227C218.866 125.071 224.909 119.391 220.543 110.302C213.471 95.578 195.836 94.7979 183.015 95.2447C170.902 95.6668 158.872 98.507 146.926 101.094C135.667 103.533 124.666 107.404 113.486 110.304C106.892 112.014 100.346 114.574 93.6146 114.923C83.7598 115.434 87.0111 108.357 87.4385 101.756C87.9632 93.6521 89.3641 85.7829 86.5166 77.9606C80.6956 61.9704 59.9657 65.089 47.773 65.978C14.1143 68.4322 -19.3787 75.7456 -52.7329 81.5229" stroke="white" stroke-opacity="0.2" stroke-width="44" stroke-linecap="round"/>
</g>
<defs>
<clipPath id="clip0_2003_7979">
<rect width="355" height="432" fill="white"/>
</clipPath>
</defs>
</svg>
