<svg width="1600" height="322" viewBox="0 0 1600 322" fill="none" xmlns="http://www.w3.org/2000/svg">
<g clip-path="url(#clip0_2001_1324)">
<path d="M1692.7 161.981C1528.21 235.926 1320.88 266.187 1121.77 289.413C1091.72 292.919 1061.67 296.584 1031.07 298.663C1019.56 299.446 981.502 307.108 983.83 288.275C986.337 267.984 1009.89 255.147 989.652 231.172C956.871 192.334 883.912 186.061 831.116 184.055C781.234 182.161 732.29 186.381 683.625 189.984C637.762 193.38 593.31 200.449 547.885 205.027C521.096 207.727 494.709 212.581 467.017 211.816C426.477 210.697 438.164 193.655 438.316 177.123C438.501 156.825 442.36 137.334 428.699 116.923C400.774 75.2 315.995 77.9967 265.9 77.2593C127.609 75.2239 -8.81225 85.4756 -145.035 91.89" stroke="white" stroke-opacity="0.2" stroke-width="64" stroke-linecap="round"/>
</g>
<defs>
<clipPath id="clip0_2001_1324">
<rect width="1600" height="322" fill="white"/>
</clipPath>
</defs>
</svg>
