<svg width="856" height="725" viewBox="0 0 856 725" fill="none" xmlns="http://www.w3.org/2000/svg">
<path d="M417.753 426.572C388.976 411.333 368.954 394.74 362.339 361.651C354.338 321.637 411.212 313.042 439.766 320.079C491.451 332.816 509.693 390.9 516.814 437.203C521.161 465.462 529.004 511.753 500.684 530.408C449.18 564.335 363.367 549.024 309.392 531.927C248.453 512.624 209.865 474.964 189.645 415.183C171.208 360.677 184.858 316.915 216.403 269.585C245.78 225.505 273.164 190.324 328.559 186.63C445.837 178.809 599.816 195.287 644.532 325.584C662.157 376.94 666.713 435.268 667.115 489.216C667.37 523.416 669.953 561.279 651.174 591.723C638.644 612.037 613.838 624.377 593.103 634.244C545.823 656.743 493.001 674.318 440.905 680.562C359.221 690.354 262.97 670.074 191.352 630.068C135.383 598.803 93.8417 546.866 65.5325 489.595C41.5553 441.088 42.0006 382.523 42.0006 329.76C42.0006 194.897 156.664 87.6046 281.115 53.3706C334.353 38.7262 392.239 43.8792 446.978 43.8792C497.384 43.8792 548.871 64.5841 596.709 79.7567C642.971 94.4292 665.219 128.811 699.756 159.295C737.333 192.46 764.119 243.997 785.913 288.378C794.224 305.3 798.857 327.006 800.147 345.706C801.343 363.066 807.168 379.066 807.168 396.58C807.168 421.848 814 446.224 814 470.992" stroke="white" stroke-opacity="0.2" stroke-width="84" stroke-linecap="round"/>
</svg>
