<svg width="757" height="319" viewBox="0 0 757 319" fill="none" xmlns="http://www.w3.org/2000/svg">
<path d="M1486.36 132.904C1321.87 206.849 1114.54 237.11 915.438 260.336C885.381 263.842 855.338 267.507 824.738 269.586C813.228 270.369 775.166 278.031 777.494 259.198C780.001 238.907 803.551 226.07 783.316 202.095C750.535 163.257 677.576 156.984 624.78 154.978C574.898 153.084 525.954 157.304 477.289 160.907C431.426 164.303 386.974 171.372 341.549 175.95C314.76 178.65 288.373 183.504 260.681 182.74C220.141 181.62 231.829 164.578 231.98 148.046C232.165 127.748 236.024 108.257 222.363 87.8464C194.438 46.1231 109.659 48.9198 59.5639 48.1824C-78.7274 46.147 -215.148 56.3986 -351.371 62.8131" stroke="#E2EDF4" stroke-opacity="0.4" stroke-width="94" stroke-linecap="round"/>
</svg>
