<svg width="379" height="286" viewBox="0 0 379 286" fill="none" xmlns="http://www.w3.org/2000/svg">
<path d="M32 207.41C57.0465 176.495 82.1572 145.765 107.226 114.913C111.648 109.47 158.388 51.2235 169.812 38.9006C179.757 28.1745 179.615 29.2419 175.889 47.1429C170.092 74.9929 161.459 104.964 154.257 130.711C150.81 143.035 129.58 212.228 127.885 233.74C127.438 239.414 129.829 248.525 132.868 248.164C140.212 247.291 146.496 237.525 152.92 230.764C262.252 115.693 165.665 216.205 245.5 130.711C254.879 120.667 218.296 193.29 220.611 207.41C223.559 225.387 209.264 242.706 220.611 249.08C246.161 263.431 280.8 235.237 303.007 215.195C318.519 201.194 333.433 181.957 347 162.078" stroke="white" stroke-opacity="0.4" stroke-width="64" stroke-linecap="round"/>
</svg>
