<svg width="353" height="403" fill="none" xmlns="http://www.w3.org/2000/svg"><path d="M142.977 193.248c10.615-11.464 20.767-18.699 36.87-17.673 19.474 1.24 16.373 28.688 9.574 41.063-12.307 22.401-41.398 23.676-63.667 21.25-13.591-1.481-35.943-3.57-41.038-19.017-9.266-28.091 8.472-66.005 23.076-88.929 16.49-25.881 38.678-39.122 68.8-41.105 27.463-1.809 45.976 9.94 63.913 30.43 16.705 19.083 29.548 36.14 24.368 62.295-10.966 55.374-37.716 124.767-103.447 129.387-25.908 1.821-53.411-3.283-78.375-9.772-15.826-4.113-33.633-7.6-45.358-20.079-7.824-8.327-10.44-21.362-12.418-32.201-4.514-24.718-6.064-51.398-2.472-76.338 5.632-39.105 26.961-81.247 54.34-109.52 21.395-22.097 50.544-34.94 80.511-40.987 25.382-5.12 52.373 2.333 76.74 8.862 62.282 16.688 97.578 83.158 97.918 145.128.146 26.51-9.43 52.726-16.234 78.119-6.266 23.384-22.227 44.707-35.181 65.022-12.526 19.646-31.17 25.712-49.541 37.962-19.987 13.328-47.117 19.377-70.322 23.996-8.848 1.761-19.448 1.225-28.244-.491-8.166-1.593-16.279-.871-24.367-3.038-11.67-3.127-23.776-2.974-35.214-6.039" stroke="#fff" stroke-opacity=".2" stroke-width="40" stroke-linecap="round"/></svg>