<svg width="265" height="60" fill="none" xmlns="http://www.w3.org/2000/svg"><g clip-path="url(#a)"><mask id="b" style="mask-type:luminance" maskUnits="userSpaceOnUse" x="0" y="0" width="265" height="60"><path d="M265 0H0v60h265V0Z" fill="#fff"/></mask><g mask="url(#b)"><path d="M0 8.824h45.329V32.19c0 5.992-3.154 11.517-8.281 14.524L22.664 55.29 8.296 46.714C3.17 43.729.022 38.182.022 32.19V8.824H0Z" fill="#BBB"/><path fill-rule="evenodd" clip-rule="evenodd" d="M12.204 21.12v7.261c.99-1.114 2.773-1.87 4.797-1.87h2.223v8.442c0 2.25-.594 4.21-1.497 5.3h9.871c-.902-1.09-1.447-3.05-1.447-5.3V26.51h2.162c2.047 0 3.844.757 4.812 1.871V21.12H12.204Z" fill="#333"/><path d="M252.796 20.082h-5.23v1.957c-7.328.16-12.204 3.301-12.204 8.845 0 5.543 4.876 8.44 12.204 8.6v1.957h5.23v-1.957c7.368-.16 12.228-3.057 12.228-8.6 0-5.544-4.86-8.685-12.228-8.845v-1.957Zm-5.23 15.245c-4.024-.16-6.294-1.831-6.294-4.443 0-2.612 2.261-4.485 6.294-4.645v9.088Zm5.23-9.088c4.066.16 6.271 2.04 6.271 4.645 0 2.603-2.205 4.283-6.271 4.443v-9.088Zm-31.382-6.157h-5.23v1.957c-7.327.16-12.204 3.301-12.204 8.845 0 5.543 4.877 8.44 12.204 8.6v1.957h5.23v-1.957c7.368-.16 12.229-3.057 12.229-8.6 0-5.544-4.861-8.685-12.229-8.845v-1.957Zm-5.23 15.245c-4.024-.16-6.294-1.831-6.294-4.443 0-2.612 2.262-4.485 6.294-4.645v9.088Zm5.23-9.088c4.066.16 6.272 2.04 6.272 4.645 0 2.603-2.206 4.283-6.272 4.443v-9.088Zm-31.686-5.586c-7.849 0-12.563 4.486-12.563 10.272 0 5.787 4.714 10.272 12.563 10.272s12.521-4.485 12.521-10.272-4.712-10.272-12.521-10.272Zm0 15.816c-3.909 0-6.405-2.36-6.405-5.544 0-3.183 2.496-5.501 6.405-5.501 3.909 0 6.405 2.327 6.405 5.501 0 3.175-2.538 5.544-6.405 5.544Z" fill="#333"/><path d="m162.608 33.252 6.97 7.34h7.775l-9.709-10.103 9.343-9.29h-7.326l-7.045 7.299h-1.61v-7.299h-5.841v19.402h5.841v-7.34h1.61l-.008-.009Zm-18.275 7.332c1.327 0 2.539-.126 3.667-.445 3.021-.856 4.995-3.342 4.995-6.727 0-3.385-1.692-5.46-4.389-6.484-1.286-.488-2.821-.53-4.265-.53h-5.999v-5.215H132.5v19.401h11.841-.008Zm-1.004-9.616c.804 0 1.568 0 2.257.243.962.328 1.526 1.142 1.526 2.117a2.49 2.49 0 0 1-1.493 2.284c-.647.286-1.286.286-2.299.286h-4.995v-4.93h5.004Zm-20.156 2.407v7.214h5.84V21.188h-5.84v7.677h-9.239v-7.677h-5.842v19.401h5.842v-7.214h9.239Zm-33.647-.904V21.183h-5.842v19.401h5.153l9.928-11.288v11.288h5.84V21.183h-5.16L89.526 32.47ZM73.747 40.59V26.47h8.194v-5.293H59.276v5.294h8.194v14.118h6.277Z" fill="#333"/></g></g><defs><clipPath id="a"><path fill="#fff" d="M0 0h265v60H0z"/></clipPath></defs></svg>