<svg width="208" height="86" fill="none" xmlns="http://www.w3.org/2000/svg"><mask id="a" style="mask-type:luminance" maskUnits="userSpaceOnUse" x="0" y="17" width="208" height="52"><path d="M208 17.2H0v51.6h208V17.2Z" fill="#fff"/></mask><g mask="url(#a)" fill="#3E4042"><path d="M22.742 54.287a11.37 11.37 0 0 1-2.925-1.396c-.835-.627-1.532-1.325-2.019-2.093-.557-.837-.975-1.674-1.253-2.651H21a4.345 4.345 0 0 0 2.228 2.093c.975.419 2.09.628 3.412.628 1.393 0 2.577-.279 3.412-.768.836-.557 1.323-1.255 1.323-2.093 0-.837-.279-1.465-.905-1.883-.627-.419-1.532-.698-2.855-.838l-3.9-.418c-1.183-.14-2.158-.349-2.993-.698-.836-.349-1.532-.837-2.02-1.395-.557-.558-.905-1.186-1.183-1.954-.279-.697-.348-1.535-.348-2.372 0-1.046.209-2.023.626-2.86a6.922 6.922 0 0 1 1.81-2.233c.766-.628 1.741-1.116 2.786-1.465a12.062 12.062 0 0 1 3.69-.558c1.393 0 2.646.209 3.76.558a8.586 8.586 0 0 1 2.855 1.535c.835.628 1.532 1.325 2.02 2.162.556.838.974 1.605 1.183 2.443h-4.457c-.348-.838-1.113-1.466-2.088-1.954-1.045-.489-2.159-.698-3.343-.698-1.462 0-2.576.28-3.342.907-.696.558-1.114 1.256-1.114 2.093 0 .768.279 1.326.836 1.745.557.418 1.323.697 2.367.837l4.108.419c2.159.209 3.83.906 5.083 2.092 1.254 1.186 1.81 2.582 1.81 4.396 0 .907-.208 1.814-.556 2.651-.349.837-.975 1.605-1.741 2.233a8.591 8.591 0 0 1-2.855 1.535c-1.114.349-2.507.558-3.969.558-1.462 0-2.785-.21-3.9-.558ZM48.644 41.1h11.071v3.977H48.644v5.372h11.28v3.977H44.257V31.821h15.667v3.977h-11.28V41.1Zm37.739-5.302h-7.24v18.558h-4.388V35.798h-7.31V31.82h19.008v3.977h-.07Zm26.46 0h-7.242v18.558h-4.387V35.798h-7.31V31.82h19.008v3.977h-.069Zm12.464 5.302h11.071v3.977h-11.071v5.372h11.28v3.977H120.92V31.821h15.667v3.977h-11.28V41.1Zm33.631 4.465c.487-.07.974-.209 1.462-.418a6.63 6.63 0 0 0 2.437-1.535 5.76 5.76 0 0 0 1.393-2.233c.278-.837.487-1.744.487-2.651 0-.907-.139-1.814-.487-2.651a5.759 5.759 0 0 0-1.393-2.233c-.627-.628-1.462-1.116-2.437-1.535-.975-.349-2.159-.558-3.481-.558h-11.072v22.535h4.387v-8.581h3.69l6.754 8.651h5.153l-6.893-8.79Zm-8.634-3.767v-6h6.336c1.114 0 2.019.279 2.646.767.626.558.975 1.256.975 2.163 0 .907-.349 1.605-.975 2.163-.627.558-1.532.837-2.646.837h-6.336v.07Zm28.06 12.489a11.376 11.376 0 0 1-2.924-1.396c-.836-.627-1.532-1.325-2.019-2.093-.557-.837-.975-1.674-1.254-2.651h4.457a4.342 4.342 0 0 0 2.228 2.093c.975.419 2.089.628 3.412.628 1.392 0 2.576-.279 3.411-.768.836-.557 1.324-1.255 1.324-2.093 0-.837-.279-1.465-.906-1.883-.626-.419-1.532-.698-2.855-.838l-3.899-.418c-1.183-.14-2.158-.349-2.994-.698-.835-.349-1.532-.837-2.019-1.395-.557-.558-.905-1.186-1.184-1.954-.278-.697-.348-1.535-.348-2.372 0-1.046.209-2.023.627-2.86a6.923 6.923 0 0 1 1.81-2.233c.766-.628 1.741-1.116 2.785-1.465a12.064 12.064 0 0 1 3.691-.558c1.392 0 2.645.209 3.76.558a8.586 8.586 0 0 1 2.854 1.535c.836.628 1.532 1.325 2.02 2.162.557.838.974 1.605 1.183 2.443h-4.456c-.348-.838-1.114-1.466-2.089-1.954-1.044-.489-2.158-.698-3.342-.698-1.462 0-2.576.28-3.342.907-.697.558-1.114 1.256-1.114 2.093 0 .768.278 1.326.835 1.745.557.418 1.323.697 2.367.837l4.109.419c2.158.209 3.829.906 5.083 2.092 1.253 1.186 1.81 2.582 1.81 4.396 0 .907-.209 1.814-.557 2.651-.348.837-.975 1.605-1.74 2.233a8.596 8.596 0 0 1-2.856 1.535c-1.113.349-2.506.558-3.968.558-1.463 0-2.785-.21-3.9-.558Z"/><path d="M-.445 16.96v52.327h208.89V16.96H-.445Zm204.921 48.35H3.524V20.938h200.952V65.31Z"/></g></svg>