<svg width="64" height="56" fill="none" xmlns="http://www.w3.org/2000/svg"><path d="M49.626 25.817c4.584 0 8.035-1.852 10.579-5.076l-3.4-2.517a8.92 8.92 0 0 1-3.172 2.541 9.208 9.208 0 0 1-4.007.902c-4.974 0-8.579-3.93-8.579-8.754 0-4.823 3.546-8.976 8.721-8.976 2.3 0 3.927.527 5.345 1.38v4.24h4.279V3.375l-.82-.626C56.22.953 52.627 0 49.625 0c-7.341 0-13.312 5.791-13.312 12.911 0 7.114 5.97 12.906 13.313 12.906Zm8.879 25.467-.153-5.944V30.835h-8.925v4.152h4.418v9.841c0 4.24-3.338 7.241-6.706 7.241-3.367 0-5.125-2.265-5.125-6.502V30.834h-8.337v4.152h3.83v11.3c0 5.751 3.324 9.714 9.253 9.714 3.408 0 6.002-1.834 7.55-4.66h.07l.61 3.952h6.858V51.29H58.51v-.008l-.005.003ZM35.327.61H27.89l-6.469 18.22h-.1L14.886.608H6.96v4.154h4.458l7.67 20.766h4.076v-.005l8-20.76h4.16V.612l.003-.002ZM0 55.346h4.407v-4.273H.002L0 55.346ZM17.02 35.65h-.048l-.277-4.815H8.828v3.785h4.186v16.666H8.828v4.004H28.27v-3.925H17.446V41.307c.49-3.64 3.303-6.749 7.143-6.749h.07l-.078 3.72h4.279v-7.512h-3.383c-3.875-.01-6.75 2.024-8.459 4.886l.002-.002Z" fill="#3E4042"/></svg>