<svg width="164" height="64" fill="none" xmlns="http://www.w3.org/2000/svg"><mask id="a" style="mask-type:luminance" maskUnits="userSpaceOnUse" x="0" y="0" width="164" height="64"><path d="M0 .5h164v63H0V.5Z" fill="#fff"/></mask><g mask="url(#a)"><path d="M22.939 39.77c1.746 0 3.165-1.41 3.165-3.144v-2.639c0-.317.259-.574.578-.574h13.62c.32 0 .578.257.578.575v2.642c0 9.838-8.031 17.815-17.937 17.815-9.905 0-17.937-7.977-17.937-17.815v-6.474a.57.57 0 0 0-.357-.53.58.58 0 0 0-.221-.044H.578a.58.58 0 0 1-.534-.355.57.57 0 0 1-.044-.22V18.642c0-.318.258-.574.578-.574h3.846a.581.581 0 0 0 .534-.355.57.57 0 0 0 .044-.22v-6.555c0-.318.258-.574.578-.574h13.616c.32 0 .578.256.578.574v6.556c0 .317.258.574.578.574h16.572c.32 0 .578.256.578.574v10.362a.568.568 0 0 1-.357.531.58.58 0 0 1-.221.044H20.352a.581.581 0 0 0-.534.354.57.57 0 0 0-.044.22v6.474c0 1.735 1.418 3.144 3.165 3.144Zm38.26 0c1.747 0 3.165-1.41 3.165-3.144V18.641c0-.318.259-.574.578-.574h13.9c.327 0 .59.276.573.602l-.279 17.957c0 9.838-8.031 17.815-17.937 17.815-9.905 0-17.937-7.977-17.937-17.815V18.641c0-.318.259-.574.578-.574h13.616c.32 0 .578.256.578.574v17.985c0 1.735 1.419 3.144 3.165 3.144Z" fill="#8E9092"/><path d="m101.3 29.859-1.734 6.987c-.39 1.421.64 2.879 2.124 2.92a4.32 4.32 0 0 0 2.685-.841 4.273 4.273 0 0 0 1.587-2.311l.763-2.785a.575.575 0 0 1 .557-.423h13.575a.581.581 0 0 1 .567.463.576.576 0 0 1-.009.261l-1.665 6.067c-2.308 8.405-9.995 14.24-18.769 14.24-10.582 0-18.27-9.992-15.486-20.136l.955-4.14a.572.572 0 0 0-.302-.666.582.582 0 0 0-.255-.06h-3.706a.58.58 0 0 1-.567-.463.57.57 0 0 1 .01-.261l2.844-10.367a.575.575 0 0 1 .558-.424h4.334a.58.58 0 0 0 .557-.423l2.091-6.87a.576.576 0 0 1 .558-.423h13.575a.585.585 0 0 1 .459.226.576.576 0 0 1 .098.5l-1.927 6.266a.574.574 0 0 0 .558.724h16.514a.581.581 0 0 1 .567.464.576.576 0 0 1-.009.26l-2.846 10.368a.575.575 0 0 1-.557.423h-17.142a.586.586 0 0 0-.562.424Zm47.986-11.45-5.052 18.417a3.986 3.986 0 0 1-1.437 2.124 4.038 4.038 0 0 1-2.441.82c-1.64 0-2.833-1.552-2.402-3.123l4.924-17.937a.569.569 0 0 0-.302-.665.585.585 0 0 0-.256-.06h-13.575a.579.579 0 0 0-.558.424l-4.55 16.589c-2.686 9.788 4.735 19.439 14.952 19.439 9.2 0 17.265-6.116 19.684-14.936l5.707-20.795a.569.569 0 0 0-.302-.665.585.585 0 0 0-.256-.06h-13.575a.596.596 0 0 0-.561.428Z" fill="#3E4042"/></g></svg>