<svg width="155" height="44" fill="none" xmlns="http://www.w3.org/2000/svg"><g clip-path="url(#a)" fill="#3E4042"><path d="M50.562.082H64.13c9.463 0 15.641 4.313 15.641 13.464v.242c0 9.19-6.452 13.262-15.485 13.262h-5.904v16.57h-7.86V.082h.039ZM64.17 21.205c5.2 0 7.977-2.62 7.977-7.417v-.242c0-5.16-2.972-7.176-7.977-7.176h-5.71v14.835h5.71Zm35.936 22.373H85.051V.082h26.512V6.45h-18.73v11.005h7.429c9.268 0 14.938 4.072 14.938 12.78v.241c.039 8.425-5.397 13.101-15.094 13.101Zm-.235-6.208c5.201 0 7.782-2.418 7.782-6.933v-.242c0-4.435-2.581-6.894-8.095-6.894h-6.726v14.07h7.04ZM120.909.08h7.86v19.713L144.959 0h8.446l-17.48 20.801 18.38 22.777h-9.269L128.808 23.26v20.317h-7.86V.081h-.039ZM38.752.082H0V39.91L38.752.082ZM3.48 43.614h38.752V3.745L3.48 43.614Z"/></g><defs><clipPath id="a"><path fill="#fff" d="M0 0h155v44H0z"/></clipPath></defs></svg>