<svg width="355" height="432" fill="none" xmlns="http://www.w3.org/2000/svg"><g clip-path="url(#a)"><path d="M393.536 66.085c-41.838 33.393-93.087 50.366-142.165 64.338-7.409 2.109-14.818 4.281-22.326 5.833-2.824.584-12.282 4.541-11.27-3.029 1.091-8.156 7.134-13.836 2.768-22.925-7.072-14.724-24.707-15.504-37.528-15.057-12.113.422-24.143 3.262-36.089 5.849-11.259 2.439-22.26 6.31-33.44 9.21-6.594 1.71-13.14 4.27-19.871 4.619-9.855.511-6.604-6.566-6.176-13.167.524-8.104 1.925-15.973-.922-23.795-5.821-15.99-26.551-12.872-38.744-11.983-33.659 2.454-67.152 9.768-100.506 15.545" stroke="#fff" stroke-opacity=".2" stroke-width="44" stroke-linecap="round"/></g><defs><clipPath id="a"><path fill="#fff" d="M0 0h355v432H0z"/></clipPath></defs></svg>