<svg width="1600" height="322" fill="none" xmlns="http://www.w3.org/2000/svg"><g clip-path="url(#a)"><path d="M1692.7 161.981c-164.49 73.945-371.82 104.206-570.93 127.432-30.05 3.506-60.1 7.171-90.7 9.25-11.51.783-49.568 8.445-47.24-10.388 2.507-20.291 26.06-33.128 5.822-57.103-32.781-38.838-105.74-45.111-158.536-47.117-49.882-1.894-98.826 2.326-147.491 5.929-45.863 3.396-90.315 10.465-135.74 15.043-26.789 2.7-53.176 7.554-80.868 6.789-40.54-1.119-28.853-18.161-28.701-34.693.185-20.298 4.044-39.789-9.617-60.2C400.774 75.2 315.995 77.997 265.9 77.259 127.609 75.224-8.812 85.476-145.035 91.89" stroke="#fff" stroke-opacity=".2" stroke-width="64" stroke-linecap="round"/></g><defs><clipPath id="a"><path fill="#fff" d="M0 0h1600v322H0z"/></clipPath></defs></svg>