<svg width="856" height="725" fill="none" xmlns="http://www.w3.org/2000/svg"><path d="M417.753 426.572c-28.777-15.239-48.799-31.832-55.414-64.921-8.001-40.014 48.873-48.609 77.427-41.572 51.685 12.737 69.927 70.821 77.048 117.124 4.347 28.259 12.19 74.55-16.13 93.205-51.504 33.927-137.317 18.616-191.292 1.519-60.939-19.303-99.527-56.963-119.747-116.744-18.437-54.506-4.787-98.268 26.758-145.598 29.377-44.08 56.761-79.261 112.156-82.955 117.278-7.821 271.257 8.657 315.973 138.954 17.625 51.356 22.181 109.684 22.583 163.632.255 34.2 2.838 72.063-15.941 102.507-12.53 20.314-37.336 32.654-58.071 42.521-47.28 22.499-100.102 40.074-152.198 46.318-81.684 9.792-177.935-10.488-249.553-50.494-55.969-31.265-97.51-83.202-125.82-140.473-23.977-48.507-23.531-107.072-23.531-159.835C42 194.897 156.664 87.605 281.115 53.37c53.238-14.644 111.124-9.49 165.863-9.49 50.406 0 101.893 20.704 149.731 35.877 46.262 14.672 68.51 49.054 103.047 79.538 37.577 33.165 64.363 84.702 86.157 129.083 8.311 16.922 12.944 38.628 14.234 57.328 1.196 17.36 7.021 33.36 7.021 50.874 0 25.268 6.832 49.644 6.832 74.412" stroke="#fff" stroke-opacity=".2" stroke-width="84" stroke-linecap="round"/></svg>