<svg width="757" height="319" fill="none" xmlns="http://www.w3.org/2000/svg"><path d="M1486.36 132.904c-164.49 73.945-371.82 104.206-570.922 127.432-30.057 3.506-60.1 7.171-90.7 9.25-11.51.783-49.572 8.445-47.244-10.388 2.507-20.291 26.057-33.128 5.822-57.103-32.781-38.838-105.74-45.111-158.536-47.117-49.882-1.894-98.826 2.326-147.491 5.929-45.863 3.396-90.315 10.465-135.74 15.043-26.789 2.7-53.176 7.554-80.868 6.79-40.54-1.12-28.852-18.162-28.701-34.694.185-20.298 4.044-39.789-9.617-60.2-27.925-41.723-112.704-38.926-162.8-39.664-138.29-2.035-274.711 8.217-410.934 14.631" stroke="#E2EDF4" stroke-opacity=".4" stroke-width="94" stroke-linecap="round"/></svg>