<svg width="379" height="286" fill="none" xmlns="http://www.w3.org/2000/svg"><path d="M32 207.41c25.047-30.915 50.157-61.645 75.226-92.497 4.422-5.443 51.162-63.69 62.586-76.012 9.945-10.727 9.803-9.66 6.077 8.242-5.797 27.85-14.43 57.821-21.632 83.568-3.447 12.324-24.677 81.517-26.372 103.029-.447 5.674 1.944 14.785 4.983 14.424 7.344-.873 13.628-10.639 20.052-17.4 109.332-115.071 12.745-14.559 92.58-100.053 9.379-10.044-27.204 62.579-24.889 76.699 2.948 17.977-11.347 35.296 0 41.67 25.55 14.351 60.189-13.843 82.396-33.885 15.512-14.001 30.426-33.238 43.993-53.117" stroke="#fff" stroke-opacity=".4" stroke-width="64" stroke-linecap="round"/></svg>