<svg width="20" height="19" fill="none" xmlns="http://www.w3.org/2000/svg"><path d="M8.573 1.39c.45-1.381 2.405-1.381 2.854 0l1.155 3.556a1.5 1.5 0 0 0 1.426 1.037h3.74c1.452 0 2.056 1.86.88 2.713l-3.024 2.198a1.5 1.5 0 0 0-.545 1.677l1.156 3.556c.449 1.382-1.133 2.53-2.309 1.677l-3.024-2.198a1.5 1.5 0 0 0-1.764 0l-3.024 2.198c-1.176.854-2.758-.295-2.309-1.677l1.156-3.556a1.5 1.5 0 0 0-.545-1.677L1.37 8.696C.196 7.842.8 5.983 2.253 5.983h3.739a1.5 1.5 0 0 0 1.426-1.037l1.155-3.555Z" fill="#F2DF35"/></svg>