<svg width="32" height="32" viewBox="0 0 32 32" fill="none" xmlns="http://www.w3.org/2000/svg">
<mask id="path-1-inside-1_868_21142" fill="white">
<path d="M10.668 7.66669C10.1213 7.66669 9.66797 7.21335 9.66797 6.66669V2.66669C9.66797 2.12002 10.1213 1.66669 10.668 1.66669C11.2146 1.66669 11.668 2.12002 11.668 2.66669V6.66669C11.668 7.21335 11.2146 7.66669 10.668 7.66669Z"/>
</mask>
<path d="M10.668 5.66669C11.2259 5.66669 11.668 6.10878 11.668 6.66669H7.66797C7.66797 8.31792 9.01673 9.66669 10.668 9.66669V5.66669ZM11.668 6.66669V2.66669H7.66797V6.66669H11.668ZM11.668 2.66669C11.668 3.22459 11.2259 3.66669 10.668 3.66669V-0.333313C9.01673 -0.333313 7.66797 1.01545 7.66797 2.66669H11.668ZM10.668 3.66669C10.1101 3.66669 9.66797 3.22459 9.66797 2.66669H13.668C13.668 1.01545 12.3192 -0.333313 10.668 -0.333313V3.66669ZM9.66797 2.66669V6.66669H13.668V2.66669H9.66797ZM9.66797 6.66669C9.66797 6.10878 10.1101 5.66669 10.668 5.66669V9.66669C12.3192 9.66669 13.668 8.31792 13.668 6.66669H9.66797Z" fill="#05AEB5" mask="url(#path-1-inside-1_868_21142)"/>
<mask id="path-3-inside-2_868_21142" fill="white">
<path d="M21.332 7.66669C20.7854 7.66669 20.332 7.21335 20.332 6.66669V2.66669C20.332 2.12002 20.7854 1.66669 21.332 1.66669C21.8787 1.66669 22.332 2.12002 22.332 2.66669V6.66669C22.332 7.21335 21.8787 7.66669 21.332 7.66669Z"/>
</mask>
<path d="M21.332 5.66669C21.8899 5.66669 22.332 6.10878 22.332 6.66669H18.332C18.332 8.31792 19.6808 9.66669 21.332 9.66669V5.66669ZM22.332 6.66669V2.66669H18.332V6.66669H22.332ZM22.332 2.66669C22.332 3.22459 21.8899 3.66669 21.332 3.66669V-0.333313C19.6808 -0.333313 18.332 1.01545 18.332 2.66669H22.332ZM21.332 3.66669C20.7741 3.66669 20.332 3.22459 20.332 2.66669H24.332C24.332 1.01545 22.9833 -0.333313 21.332 -0.333313V3.66669ZM20.332 2.66669V6.66669H24.332V2.66669H20.332ZM20.332 6.66669C20.332 6.10878 20.7741 5.66669 21.332 5.66669V9.66669C22.9833 9.66669 24.332 8.31792 24.332 6.66669H20.332Z" fill="#05AEB5" mask="url(#path-3-inside-2_868_21142)"/>
<path d="M11.3333 19.3333C11.16 19.3333 10.9867 19.2934 10.8267 19.2267C10.6533 19.16 10.52 19.0667 10.3867 18.9467C10.1467 18.6933 10 18.36 10 18C10 17.8267 10.04 17.6533 10.1067 17.4933C10.1733 17.3333 10.2667 17.1867 10.3867 17.0534C10.52 16.9334 10.6533 16.84 10.8267 16.7733C11.3067 16.5733 11.9067 16.68 12.28 17.0534C12.52 17.3067 12.6667 17.6533 12.6667 18C12.6667 18.08 12.6533 18.1734 12.64 18.2667C12.6267 18.3467 12.6 18.4267 12.56 18.5067C12.5333 18.5867 12.4933 18.6667 12.44 18.7467C12.4 18.8133 12.3333 18.88 12.28 18.9467C12.0267 19.1867 11.68 19.3333 11.3333 19.3333Z" fill="#05AEB5"/>
<path d="M16.0013 19.3333C15.828 19.3333 15.6546 19.2934 15.4946 19.2267C15.3213 19.16 15.188 19.0667 15.0546 18.9467C14.8146 18.6933 14.668 18.36 14.668 18C14.668 17.8267 14.708 17.6533 14.7746 17.4933C14.8413 17.3333 14.9346 17.1867 15.0546 17.0534C15.188 16.9334 15.3213 16.84 15.4946 16.7733C15.9746 16.56 16.5746 16.68 16.948 17.0534C17.188 17.3067 17.3346 17.6533 17.3346 18C17.3346 18.08 17.3213 18.1734 17.308 18.2667C17.2946 18.3467 17.268 18.4267 17.228 18.5067C17.2013 18.5867 17.1613 18.6667 17.108 18.7467C17.068 18.8133 17.0013 18.88 16.948 18.9467C16.6946 19.1867 16.348 19.3333 16.0013 19.3333Z" fill="#05AEB5"/>
<path d="M20.6654 19.3333C20.492 19.3333 20.3187 19.2934 20.1587 19.2267C19.9854 19.16 19.852 19.0667 19.7187 18.9467C19.6654 18.88 19.612 18.8133 19.5587 18.7467C19.5054 18.6667 19.4654 18.5867 19.4387 18.5067C19.3987 18.4267 19.372 18.3467 19.3587 18.2667C19.3454 18.1734 19.332 18.08 19.332 18C19.332 17.6533 19.4787 17.3067 19.7187 17.0534C19.852 16.9334 19.9854 16.84 20.1587 16.7733C20.652 16.56 21.2387 16.68 21.612 17.0534C21.852 17.3067 21.9987 17.6533 21.9987 18C21.9987 18.08 21.9854 18.1734 21.972 18.2667C21.9587 18.3467 21.932 18.4267 21.892 18.5067C21.8654 18.5867 21.8254 18.6667 21.772 18.7467C21.732 18.8133 21.6654 18.88 21.612 18.9467C21.3587 19.1867 21.012 19.3333 20.6654 19.3333Z" fill="#05AEB5"/>
<path d="M11.3333 24C11.16 24 10.9867 23.96 10.8267 23.8934C10.6667 23.8267 10.52 23.7333 10.3867 23.6133C10.1467 23.36 10 23.0134 10 22.6667C10 22.4934 10.04 22.32 10.1067 22.16C10.1733 21.9867 10.2667 21.84 10.3867 21.72C10.88 21.2267 11.7867 21.2267 12.28 21.72C12.52 21.9734 12.6667 22.32 12.6667 22.6667C12.6667 23.0134 12.52 23.36 12.28 23.6133C12.0267 23.8533 11.68 24 11.3333 24Z" fill="#05AEB5"/>
<path d="M16.0013 24C15.6546 24 15.308 23.8533 15.0546 23.6133C14.8146 23.36 14.668 23.0134 14.668 22.6667C14.668 22.4934 14.708 22.32 14.7746 22.16C14.8413 21.9867 14.9346 21.84 15.0546 21.72C15.548 21.2267 16.4546 21.2267 16.948 21.72C17.068 21.84 17.1613 21.9867 17.228 22.16C17.2946 22.32 17.3346 22.4934 17.3346 22.6667C17.3346 23.0134 17.188 23.36 16.948 23.6133C16.6946 23.8533 16.348 24 16.0013 24Z" fill="#05AEB5"/>
<path d="M20.6654 24.0001C20.3187 24.0001 19.972 23.8534 19.7187 23.6134C19.5987 23.4934 19.5054 23.3467 19.4387 23.1734C19.372 23.0134 19.332 22.8401 19.332 22.6667C19.332 22.4934 19.372 22.3201 19.4387 22.1601C19.5054 21.9867 19.5987 21.8401 19.7187 21.7201C20.0254 21.4134 20.492 21.2667 20.9187 21.3601C21.012 21.3734 21.092 21.4 21.172 21.44C21.252 21.4667 21.332 21.5068 21.412 21.5601C21.4787 21.6001 21.5454 21.6667 21.612 21.7201C21.852 21.9734 21.9987 22.3201 21.9987 22.6667C21.9987 23.0134 21.852 23.3601 21.612 23.6134C21.3587 23.8534 21.012 24.0001 20.6654 24.0001Z" fill="#05AEB5"/>
<path d="M27.3346 13.1199H4.66797C4.1213 13.1199 3.66797 12.6666 3.66797 12.1199C3.66797 11.5733 4.1213 11.1199 4.66797 11.1199H27.3346C27.8813 11.1199 28.3346 11.5733 28.3346 12.1199C28.3346 12.6666 27.8813 13.1199 27.3346 13.1199Z" fill="#05AEB5"/>
<path d="M21.3333 30.3334H10.6667C5.8 30.3334 3 27.5334 3 22.6667V11.3334C3 6.46669 5.8 3.66669 10.6667 3.66669H21.3333C26.2 3.66669 29 6.46669 29 11.3334V22.6667C29 27.5334 26.2 30.3334 21.3333 30.3334ZM10.6667 5.66669C6.85333 5.66669 5 7.52002 5 11.3334V22.6667C5 26.48 6.85333 28.3334 10.6667 28.3334H21.3333C25.1467 28.3334 27 26.48 27 22.6667V11.3334C27 7.52002 25.1467 5.66669 21.3333 5.66669H10.6667Z" fill="#05AEB5"/>
</svg>
