<svg width="33" height="32" viewBox="0 0 33 32" fill="none" xmlns="http://www.w3.org/2000/svg">
<path d="M22.5 0C16.892 0 12.5 2.636 12.5 6V9.44933C11.8362 9.37159 11.1684 9.33285 10.5 9.33333C4.892 9.33333 0.5 11.9693 0.5 15.3333V26C0.5 29.364 4.892 32 10.5 32C15.0427 32 18.788 30.2707 20.0467 27.8253C20.844 27.9413 21.6653 28 22.5 28C28.108 28 32.5 25.364 32.5 22V6C32.5 2.636 28.108 0 22.5 0ZM29.8333 16.6667C29.8333 18.24 26.6973 20 22.5 20C21.8173 20 21.148 19.9533 20.5 19.8627V17.2173C21.1533 17.2933 21.8227 17.3333 22.5 17.3333C25.4253 17.3333 28.02 16.616 29.8333 15.452V16.6667ZM3.16667 19.452C4.98 20.616 7.57467 21.3333 10.5 21.3333C13.4253 21.3333 16.02 20.616 17.8333 19.452V20.6667C17.8333 22.24 14.6973 24 10.5 24C6.30267 24 3.16667 22.24 3.16667 20.6667V19.452ZM29.8333 11.3333C29.8333 12.9067 26.6973 14.6667 22.5 14.6667C21.7867 14.6667 21.0867 14.616 20.412 14.5173C20.1547 13.3347 19.3453 12.272 18.1373 11.42C19.4493 11.7933 20.9267 12 22.5 12C25.4253 12 28.02 11.2827 29.8333 10.1187V11.3333ZM22.5 2.66667C26.6973 2.66667 29.8333 4.42667 29.8333 6C29.8333 7.57333 26.6973 9.33333 22.5 9.33333C18.3027 9.33333 15.1667 7.57333 15.1667 6C15.1667 4.42667 18.3027 2.66667 22.5 2.66667ZM10.5 12C14.6973 12 17.8333 13.76 17.8333 15.3333C17.8333 16.9067 14.6973 18.6667 10.5 18.6667C6.30267 18.6667 3.16667 16.9067 3.16667 15.3333C3.16667 13.76 6.30267 12 10.5 12ZM10.5 29.3333C6.30267 29.3333 3.16667 27.5733 3.16667 26V24.7853C4.98 25.9493 7.57467 26.6667 10.5 26.6667C13.4253 26.6667 16.02 25.9493 17.8333 24.7853V26C17.8333 27.5733 14.6973 29.3333 10.5 29.3333ZM22.5 25.3333C21.8173 25.3333 21.148 25.2867 20.5 25.196V22.5507C21.1533 22.6267 21.8227 22.6667 22.5 22.6667C25.4253 22.6667 28.02 21.9493 29.8333 20.7853V22C29.8333 23.5733 26.6973 25.3333 22.5 25.3333Z" fill="#365F7B"/>
</svg>
