<svg width="32" height="32" viewBox="0 0 32 32" fill="none" xmlns="http://www.w3.org/2000/svg">
<g clip-path="url(#clip0_446_9597)">
<path d="M12 16C13.5823 16 15.129 15.5308 16.4446 14.6518C17.7602 13.7727 18.7855 12.5233 19.391 11.0615C19.9965 9.59966 20.155 7.99113 19.8463 6.43928C19.5376 4.88743 18.7757 3.46197 17.6569 2.34315C16.538 1.22433 15.1126 0.462403 13.5607 0.153721C12.0089 -0.15496 10.4003 0.00346629 8.93853 0.608967C7.47672 1.21447 6.2273 2.23985 5.34824 3.55544C4.46919 4.87103 4 6.41775 4 8C4.00212 10.1211 4.84565 12.1547 6.34549 13.6545C7.84532 15.1544 9.87892 15.9979 12 16ZM12 2.66667C13.0548 2.66667 14.086 2.97946 14.963 3.5655C15.8401 4.15153 16.5237 4.98449 16.9274 5.95903C17.331 6.93357 17.4366 8.00592 17.2309 9.04049C17.0251 10.0751 16.5171 11.0254 15.7712 11.7712C15.0254 12.5171 14.075 13.0251 13.0405 13.2309C12.0059 13.4366 10.9336 13.331 9.95902 12.9274C8.98448 12.5237 8.15153 11.8401 7.5655 10.963C6.97946 10.086 6.66667 9.05484 6.66667 8C6.66667 6.58552 7.22857 5.22896 8.22876 4.22877C9.22896 3.22857 10.5855 2.66667 12 2.66667ZM12 18.6667C8.81859 18.6706 5.7686 19.9361 3.51901 22.1857C1.26941 24.4353 0.00388127 27.4853 0 30.6667C0 31.0203 0.140476 31.3594 0.390524 31.6095C0.640573 31.8595 0.979711 32 1.33333 32C1.68696 32 2.02609 31.8595 2.27614 31.6095C2.52619 31.3594 2.66667 31.0203 2.66667 30.6667C2.66667 28.1913 3.65 25.8173 5.40034 24.067C7.15068 22.3167 9.52465 21.3333 12 21.3333C14.4754 21.3333 16.8493 22.3167 18.5997 24.067C20.35 25.8173 21.3333 28.1913 21.3333 30.6667C21.3333 31.0203 21.4738 31.3594 21.7239 31.6095C21.9739 31.8595 22.313 32 22.6667 32C23.0203 32 23.3594 31.8595 23.6095 31.6095C23.8595 31.3594 24 31.0203 24 30.6667C23.9961 27.4853 22.7306 24.4353 20.481 22.1857C18.2314 19.9361 15.1814 18.6706 12 18.6667ZM29.3333 10.5C28.5913 10.537 27.8941 10.8664 27.3944 11.4161C26.8946 11.9658 26.633 12.6912 26.6667 13.4333C26.7004 12.6912 26.4387 11.9658 25.939 11.4161C25.4392 10.8664 24.742 10.537 24 10.5C23.258 10.537 22.5608 10.8664 22.061 11.4161C21.5613 11.9658 21.2996 12.6912 21.3333 13.4333C21.3333 15.74 24.3413 18.4427 25.84 19.6453C26.0746 19.8332 26.3662 19.9355 26.6667 19.9355C26.9672 19.9355 27.2587 19.8332 27.4933 19.6453C28.992 18.4453 32 15.74 32 13.4333C32.0337 12.6912 31.7721 11.9658 31.2723 11.4161C30.7725 10.8664 30.0754 10.537 29.3333 10.5Z" fill="#365F7B"/>
</g>
<defs>
<clipPath id="clip0_446_9597">
<rect width="32" height="32" fill="white"/>
</clipPath>
</defs>
</svg>
