<svg width="32" height="32" viewBox="0 0 32 32" fill="none" xmlns="http://www.w3.org/2000/svg">
<path d="M10.6679 18.6667H8.00122V16C8.00122 13.7947 9.79588 12 12.0012 12H20.0012C22.2066 12 24.0012 13.7947 24.0012 16V18.6667H21.3346V16C21.3346 15.2653 20.7372 14.6667 20.0012 14.6667H12.0012C11.2666 14.6667 10.6679 15.2653 10.6679 16V18.6667ZM10.6679 5.33333C10.6679 2.392 13.0599 0 16.0012 0C18.9426 0 21.3346 2.392 21.3346 5.33333C21.3346 8.27467 18.9426 10.6667 16.0012 10.6667C13.0599 10.6667 10.6679 8.27467 10.6679 5.33333ZM13.3346 5.33333C13.3346 6.804 14.5306 8 16.0012 8C17.4719 8 18.6679 6.804 18.6679 5.33333C18.6679 3.86267 17.4719 2.66667 16.0012 2.66667C14.5306 2.66667 13.3346 3.86267 13.3346 5.33333ZM16.4426 21.3333H15.5786L14.5332 25.3333H10.6679V26.1533L13.6172 27.7947L12.4586 31.4173L13.0986 31.9L16.0092 29.6507L18.9065 31.8907L19.5799 31.4253L18.4012 27.844L21.3305 26.1467V25.332H17.4866L16.4412 21.332L16.4426 21.3333ZM10.6679 22.148V21.3333H6.82388L5.77855 17.3333H4.91455L3.86922 21.3333H0.00521851V22.1533L2.95455 23.7947L1.79588 27.4173L2.43588 27.9L5.34655 25.6507L8.24389 27.8907L8.91588 27.4253L7.73722 23.844L10.6666 22.1467L10.6679 22.148ZM31.9959 21.3333H28.1519L27.1066 17.3333H26.2425L25.1972 21.3333H21.3319V22.1533L24.2812 23.7947L23.1225 27.4173L23.7625 27.9L26.6732 25.6507L29.5705 27.8907L30.2439 27.4253L29.0652 23.844L31.9946 22.1467V21.332L31.9959 21.3333Z" fill="#365F7B"/>
</svg>
