<svg width="58" height="53" viewBox="0 0 58 53" fill="none" xmlns="http://www.w3.org/2000/svg">
<path d="M29.4892 47C23.1202 41.9714 15.2055 37.0471 10.479 30.9484C8.00392 27.7548 6.62647 22.8557 7.0886 18.2843C7.45115 14.6979 8.9459 11.3132 11.9311 9.11193C15.1921 6.70732 20.1223 6.47795 24.0766 7.80904C30.6737 10.0298 26.3671 26.2734 27.1072 30.9484C27.8446 26.7065 38.2455 12.1516 42.3609 9.11193C48.1052 4.86926 52.1001 12.6953 51.9981 16.1997C51.6688 27.5095 36.5474 37.6435 30.0835 47" stroke="#05AEB5" stroke-width="12" stroke-linecap="round" stroke-linejoin="round"/>
<path d="M17.998 13C16.9779 17.1894 16.9984 19.7827 16.9984 24C16.9984 30.5606 14.3268 33.8547 25.4998 40" stroke="#05AEB5" stroke-width="11" stroke-linecap="round"/>
<path d="M44 18C39.5509 22.8149 31 27.6789 31 39" stroke="#05AEB5" stroke-width="9" stroke-linecap="round"/>
</svg>
