<svg width="40" height="40" viewBox="0 0 40 40" fill="none" xmlns="http://www.w3.org/2000/svg">
<path d="M20.0008 22.6167C17.0014 22.6167 14.5508 20.1794 14.5508 17.1667C14.5508 14.1573 16.998 11.7333 20.0008 11.7333C23.0002 11.7333 25.4508 14.1706 25.4508 17.1833C25.4508 20.1927 23.0036 22.6167 20.0008 22.6167ZM20.0008 12.2333C17.2846 12.2333 15.0508 14.445 15.0508 17.1833C15.0508 19.919 17.2652 22.1333 20.0008 22.1333C22.7364 22.1333 24.9508 19.919 24.9508 17.1833C24.9508 14.445 22.717 12.2333 20.0008 12.2333Z" stroke="#05AEB5" stroke-width="2"/>
<path d="M5.79043 14.1058L5.79069 14.1047C7.51278 6.51817 14.1285 3.08331 19.9988 3.08331H19.9988H19.9988H19.9989H19.9989H19.9989H19.9989H19.9989H19.9989H19.9989H19.9989H19.9989H19.9989H19.9989H19.9989H19.999H19.999H19.999H19.999H19.999H19.999H19.999H19.999H19.999H19.999H19.999H19.9991H19.9991H19.9991H19.9991H19.9991H19.9991H19.9991H19.9991H19.9992H19.9992H19.9992H19.9992H19.9992H19.9992H19.9992H19.9992H19.9992H19.9992H19.9992H19.9992H19.9993H19.9993H19.9993H19.9993H19.9993H19.9993H19.9993H19.9993H19.9993H19.9993H19.9993H19.9994H19.9994H19.9994H19.9994H19.9994H19.9994H19.9994H19.9994H19.9994H19.9994H19.9995H19.9995H19.9995H19.9995H19.9995H19.9995H19.9995H19.9995H19.9996H19.9996H19.9996H19.9996H19.9996H19.9996H19.9996H19.9996H19.9997H19.9997H19.9997H19.9997H19.9997H19.9997H19.9997H19.9998H19.9998H19.9998H19.9998H19.9998H19.9998H19.9998H19.9999H19.9999H19.9999H19.9999H19.9999H19.9999H19.9999H20H20H20H20H20H20H20.0001H20.0001H20.0001H20.0001H20.0001H20.0002H20.0002H20.0002H20.0002H20.0002H20.0002H20.0003H20.0003H20.0003H20.0003H20.0003H20.0004H20.0004H20.0004H20.0004H20.0004H20.0005H20.0005H20.0005H20.0005H20.0005H20.0006H20.0006H20.0006H20.0006H20.0007H20.0007H20.0007H20.0007H20.0007H20.0008H20.0008H20.0008H20.0008H20.0009H20.0009H20.0009H20.0009H20.001H20.001H20.001H20.001H20.0011H20.0011H20.0011H20.0011H20.0012H20.0012H20.0012H20.0012H20.0013H20.0013H20.0013H20.0014H20.0014H20.0014H20.0014H20.0015H20.0015H20.0015H20.0016H20.0016H20.0016H20.0016H20.0017H20.0017H20.0017H20.0018H20.0018H20.0018H20.0019H20.0019H20.0019H20.002H20.002H20.002H20.002H20.0021H20.0021H20.0021H20.0022H20.0022H20.0022H20.0023H20.0023H20.0024H20.0024H20.0024H20.0025H20.0025H20.0025H20.0026H20.0026H20.0026H20.0027H20.0027H20.0027H20.0028H20.0028H20.0029H20.0029H20.0029H20.003H20.003H20.0031H20.0031H20.0031H20.0032H20.0032H20.0033H20.0033H20.0033H20.0034H20.0034H20.0035H20.0035H20.0035H20.0036H20.0036H20.0037H20.0037H20.0038H20.0038H20.0038H20.0039H20.0039H20.004H20.004H20.0041H20.0041H20.0042H20.0042H20.0042H20.0043H20.0043H20.0044H20.0044H20.0045H20.0045H20.0046H20.0046H20.0047H20.0047H20.0048H20.0048H20.0049H20.0049H20.005H20.005H20.0051H20.0051H20.0052H20.0052H20.0053H20.0053H20.0054H20.0054H20.0055H20.0055H20.0056H20.0056H20.0057H20.0058H20.0058H20.0059H20.0059H20.006H20.006H20.0061H20.0061H20.0062H20.0063H20.0063H20.0064H20.0064H20.0065H20.0065H20.0066H20.0067H20.0067H20.0068H20.0068H20.0069H20.007H20.007H20.0071H20.0071H20.0072H20.0073H20.0073H20.0074H20.0075H20.0075H20.0076H20.0076H20.0077H20.0078H20.0078H20.0079H20.008H20.008H20.0081H20.0082H20.0082H20.0083H20.0084H20.0084H20.0085H20.0086H20.0086H20.0087H20.0088H20.0088H20.0089H20.009H20.0091H20.0091H20.0092H20.0093H20.0093H20.0094H20.0095H20.0096H20.0096H20.0097H20.0098H20.0098H20.0099H20.01H20.0101H20.0101H20.0102H20.0103H20.0104H20.0104H20.0105H20.0106H20.0107H20.0108H20.0108H20.0109H20.011H20.0111H20.0112H20.0112H20.0113H20.0114H20.0115H20.0116H20.0116H20.0117H20.0118H20.0119H20.012H20.0121H20.0121H20.0122H20.0123H20.0124H20.0125H20.0126H20.0126H20.0127H20.0128H20.0129H20.013H20.0131H20.0132H20.0133H20.0133H20.0134H20.0135H20.0136H20.0137H20.0138H20.0139H20.014H20.0141H20.0142H20.0143H20.0144H20.0144H20.0145H20.0146H20.0147H20.0148H20.0149H20.015H20.0151H20.0152H20.0153H20.0154H20.0155C25.8851 3.08331 32.501 6.5175 34.2235 14.1207C36.1344 22.5633 31.0474 29.7515 26.19 34.4282C24.447 36.0957 22.2133 36.9333 19.9988 36.9333C17.7844 36.9333 15.5508 36.0958 13.8078 34.4283C8.95077 29.7521 3.86392 22.548 5.79043 14.1058ZM33.7411 14.2137L33.7402 14.2098C31.9358 6.34254 25.1463 3.58331 19.9988 3.58331C14.8507 3.58331 8.07752 6.34336 6.29055 14.2109C4.36501 22.6108 9.65852 29.7252 14.1721 34.0539C17.4429 37.2101 22.5727 37.2098 25.8431 34.053C30.3397 29.7246 35.6311 22.6117 33.7411 14.2137Z" stroke="#05AEB5" stroke-width="2"/>
</svg>
