<svg width="32" height="32" viewBox="0 0 32 32" fill="none" xmlns="http://www.w3.org/2000/svg">
  <path d="M22.6667 4.66699H9.33342C5.33341 4.66699 2.66675 6.66699 2.66675 11.3337V20.667C2.66675 25.3337 5.33341 27.3337 9.33342 27.3337H22.6667C26.6667 27.3337 29.3334 25.3337 29.3334 20.667V11.3337C29.3334 6.66699 26.6667 4.66699 22.6667 4.66699ZM23.2934 12.787L19.1201 16.1203C18.2401 16.827 17.1201 17.1737 16.0001 17.1737C14.8801 17.1737 13.7467 16.827 12.8801 16.1203L8.70675 12.787C8.28008 12.4403 8.21341 11.8003 8.54675 11.3737C8.89341 10.947 9.52008 10.867 9.94675 11.2137L14.1201 14.547C15.1334 15.3603 16.8534 15.3603 17.8667 14.547L22.0401 11.2137C22.4667 10.867 23.1067 10.9337 23.4401 11.3737C23.7867 11.8003 23.7201 12.4403 23.2934 12.787Z" fill="white" />
</svg>