<svg width="40" height="40" viewBox="0 0 40 40" fill="none" xmlns="http://www.w3.org/2000/svg">
<path d="M28.332 34.4166H11.6654C8.81352 34.4166 6.70011 33.5997 5.29955 32.1991C3.89899 30.7986 3.08203 28.6852 3.08203 25.8333V14.1666C3.08203 11.3148 3.89899 9.2014 5.29955 7.80084C6.70011 6.40028 8.81352 5.58331 11.6654 5.58331H28.332C31.1839 5.58331 33.2973 6.40028 34.6978 7.80084C36.0984 9.2014 36.9154 11.3148 36.9154 14.1666V25.8333C36.9154 28.6852 36.0984 30.7986 34.6978 32.1991C33.2973 33.5997 31.1839 34.4166 28.332 34.4166ZM11.6654 6.08331C9.13505 6.08331 7.06132 6.69815 5.62909 8.13037C4.19687 9.5626 3.58203 11.6363 3.58203 14.1666V25.8333C3.58203 28.3636 4.19687 30.4374 5.62909 31.8696C7.06132 33.3018 9.13505 33.9166 11.6654 33.9166H28.332C30.8623 33.9166 32.9361 33.3018 34.3683 31.8696C35.8005 30.4374 36.4154 28.3636 36.4154 25.8333V14.1666C36.4154 11.6363 35.8005 9.5626 34.3683 8.13037C32.9361 6.69815 30.8623 6.08331 28.332 6.08331H11.6654Z" stroke="#05AEB5" stroke-width="2"/>
<path d="M16.7299 19.3583L16.73 19.3582L16.7221 19.3519L11.5098 15.1888C11.3855 15.086 11.3902 14.93 11.4575 14.8472C11.5602 14.7207 11.7175 14.7251 11.8008 14.7927L11.8007 14.7928L11.8073 14.798L17.0221 18.9632C17.0224 18.9634 17.0227 18.9637 17.023 18.9639C17.8656 19.6397 18.9527 19.9458 19.9897 19.9458C21.0266 19.9458 22.1138 19.6397 22.9563 18.9639C22.9566 18.9637 22.9569 18.9634 22.9573 18.9632L28.1721 14.798L28.1721 14.798L28.1786 14.7927C28.287 14.7046 28.4367 14.7357 28.5009 14.8205L28.5112 14.834L28.5219 14.8472C28.61 14.9557 28.579 15.1053 28.4942 15.1695L28.4839 15.1773L28.4739 15.1853L23.2573 19.3519L23.2503 19.3575L23.2435 19.3631C22.3845 20.0745 21.2047 20.4499 19.998 20.4499C18.7931 20.4499 17.6093 20.0753 16.7299 19.3583Z" stroke="#05AEB5" stroke-width="2"/>
</svg>
