<svg width="80" height="80" viewBox="0 0 80 80" fill="none" xmlns="http://www.w3.org/2000/svg">
<rect width="80" height="80" rx="40" fill="#365F7B"/>
<path d="M40.0008 42.6166C37.0014 42.6166 34.5508 40.1793 34.5508 37.1666C34.5508 34.1573 36.998 31.7333 40.0008 31.7333C43.0002 31.7333 45.4508 34.1706 45.4508 37.1833C45.4508 40.1926 43.0036 42.6166 40.0008 42.6166ZM40.0008 32.2333C37.2846 32.2333 35.0508 34.4449 35.0508 37.1833C35.0508 39.9189 37.2652 42.1333 40.0008 42.1333C42.7364 42.1333 44.9508 39.9189 44.9508 37.1833C44.9508 34.4449 42.717 32.2333 40.0008 32.2333Z" stroke="white" stroke-width="2"/>
<path d="M25.7904 34.1059L25.7907 34.1047C27.5128 26.5182 34.1285 23.0834 39.9988 23.0834H39.9988H39.9988H39.9989H39.9989H39.9989H39.9989H39.9989H39.9989H39.9989H39.9989H39.9989H39.9989H39.9989H39.9989H39.999H39.999H39.999H39.999H39.999H39.999H39.999H39.999H39.999H39.999H39.999H39.9991H39.9991H39.9991H39.9991H39.9991H39.9991H39.9991H39.9991H39.9992H39.9992H39.9992H39.9992H39.9992H39.9992H39.9992H39.9992H39.9992H39.9992H39.9992H39.9992H39.9993H39.9993H39.9993H39.9993H39.9993H39.9993H39.9993H39.9993H39.9993H39.9993H39.9993H39.9994H39.9994H39.9994H39.9994H39.9994H39.9994H39.9994H39.9994H39.9994H39.9994H39.9995H39.9995H39.9995H39.9995H39.9995H39.9995H39.9995H39.9995H39.9996H39.9996H39.9996H39.9996H39.9996H39.9996H39.9996H39.9996H39.9997H39.9997H39.9997H39.9997H39.9997H39.9997H39.9997H39.9998H39.9998H39.9998H39.9998H39.9998H39.9998H39.9998H39.9999H39.9999H39.9999H39.9999H39.9999H39.9999H39.9999H40H40H40H40H40H40H40.0001H40.0001H40.0001H40.0001H40.0001H40.0002H40.0002H40.0002H40.0002H40.0002H40.0002H40.0003H40.0003H40.0003H40.0003H40.0003H40.0004H40.0004H40.0004H40.0004H40.0004H40.0005H40.0005H40.0005H40.0005H40.0005H40.0006H40.0006H40.0006H40.0006H40.0007H40.0007H40.0007H40.0007H40.0007H40.0008H40.0008H40.0008H40.0008H40.0009H40.0009H40.0009H40.0009H40.001H40.001H40.001H40.001H40.0011H40.0011H40.0011H40.0011H40.0012H40.0012H40.0012H40.0012H40.0013H40.0013H40.0013H40.0014H40.0014H40.0014H40.0014H40.0015H40.0015H40.0015H40.0016H40.0016H40.0016H40.0016H40.0017H40.0017H40.0017H40.0018H40.0018H40.0018H40.0019H40.0019H40.0019H40.002H40.002H40.002H40.002H40.0021H40.0021H40.0021H40.0022H40.0022H40.0022H40.0023H40.0023H40.0024H40.0024H40.0024H40.0025H40.0025H40.0025H40.0026H40.0026H40.0026H40.0027H40.0027H40.0027H40.0028H40.0028H40.0029H40.0029H40.0029H40.003H40.003H40.0031H40.0031H40.0031H40.0032H40.0032H40.0033H40.0033H40.0033H40.0034H40.0034H40.0035H40.0035H40.0035H40.0036H40.0036H40.0037H40.0037H40.0038H40.0038H40.0038H40.0039H40.0039H40.004H40.004H40.0041H40.0041H40.0042H40.0042H40.0042H40.0043H40.0043H40.0044H40.0044H40.0045H40.0045H40.0046H40.0046H40.0047H40.0047H40.0048H40.0048H40.0049H40.0049H40.005H40.005H40.0051H40.0051H40.0052H40.0052H40.0053H40.0053H40.0054H40.0054H40.0055H40.0055H40.0056H40.0056H40.0057H40.0058H40.0058H40.0059H40.0059H40.006H40.006H40.0061H40.0061H40.0062H40.0063H40.0063H40.0064H40.0064H40.0065H40.0065H40.0066H40.0067H40.0067H40.0068H40.0068H40.0069H40.007H40.007H40.0071H40.0071H40.0072H40.0073H40.0073H40.0074H40.0075H40.0075H40.0076H40.0076H40.0077H40.0078H40.0078H40.0079H40.008H40.008H40.0081H40.0082H40.0082H40.0083H40.0084H40.0084H40.0085H40.0086H40.0086H40.0087H40.0088H40.0088H40.0089H40.009H40.0091H40.0091H40.0092H40.0093H40.0093H40.0094H40.0095H40.0096H40.0096H40.0097H40.0098H40.0098H40.0099H40.01H40.0101H40.0101H40.0102H40.0103H40.0104H40.0104H40.0105H40.0106H40.0107H40.0108H40.0108H40.0109H40.011H40.0111H40.0112H40.0112H40.0113H40.0114H40.0115H40.0116H40.0116H40.0117H40.0118H40.0119H40.012H40.0121H40.0121H40.0122H40.0123H40.0124H40.0125H40.0126H40.0126H40.0127H40.0128H40.0129H40.013H40.0131H40.0132H40.0133H40.0133H40.0134H40.0135H40.0136H40.0137H40.0138H40.0139H40.014H40.0141H40.0142H40.0143H40.0144H40.0144H40.0145H40.0146H40.0147H40.0148H40.0149H40.015H40.0151H40.0152H40.0153H40.0154H40.0155C45.8851 23.0834 52.501 26.5176 54.2235 34.1208C56.1344 42.5634 51.0474 49.7515 46.19 54.4283C44.447 56.0958 42.2133 56.9334 39.9988 56.9334C37.7844 56.9334 35.5508 56.0958 33.8078 54.4284C28.9508 49.7521 23.8639 42.548 25.7904 34.1059ZM53.7411 34.2138L53.7402 34.2098C51.9358 26.3426 45.1463 23.5834 39.9988 23.5834C34.8507 23.5834 28.0775 26.3434 26.2906 34.2109C24.365 42.6109 29.6585 49.7252 34.1721 54.054C37.4429 57.2101 42.5727 57.2099 45.8431 54.0531C50.3397 49.7247 55.6311 42.6118 53.7411 34.2138Z" stroke="white" stroke-width="2"/>
</svg>
