<svg width="32" height="32" viewBox="0 0 32 32" fill="none" xmlns="http://www.w3.org/2000/svg">
<path d="M14.6667 16C15.0203 16 15.3594 16.1405 15.6095 16.3905C15.8595 16.6406 16 16.9797 16 17.3333C16 17.687 15.8595 18.0261 15.6095 18.2761C15.3594 18.5262 15.0203 18.6667 14.6667 18.6667H10.6667C10.313 18.6667 9.97391 18.5262 9.72386 18.2761C9.47381 18.0261 9.33333 17.687 9.33333 17.3333C9.33333 16.9797 9.47381 16.6406 9.72386 16.3905C9.97391 16.1405 10.313 16 10.6667 16H14.6667ZM22.6667 12C22.6667 11.6464 22.5262 11.3072 22.2761 11.0572C22.0261 10.8071 21.687 10.6667 21.3333 10.6667H10.6667C10.313 10.6667 9.97391 10.8071 9.72386 11.0572C9.47381 11.3072 9.33333 11.6464 9.33333 12C9.33333 12.3536 9.47381 12.6928 9.72386 12.9428C9.97391 13.1929 10.313 13.3333 10.6667 13.3333H21.3333C21.687 13.3333 22.0261 13.1929 22.2761 12.9428C22.5262 12.6928 22.6667 12.3536 22.6667 12ZM10.6667 8H21.3333C21.687 8 22.0261 7.85952 22.2761 7.60948C22.5262 7.35943 22.6667 7.02029 22.6667 6.66667C22.6667 6.31305 22.5262 5.97391 22.2761 5.72386C22.0261 5.47381 21.687 5.33333 21.3333 5.33333H10.6667C10.313 5.33333 9.97391 5.47381 9.72386 5.72386C9.47381 5.97391 9.33333 6.31305 9.33333 6.66667C9.33333 7.02029 9.47381 7.35943 9.72386 7.60948C9.97391 7.85952 10.313 8 10.6667 8ZM26.6667 25.9253V31.036C26.6668 31.2262 26.6104 31.4122 26.5048 31.5703C26.3992 31.7285 26.249 31.8518 26.0733 31.9246C25.8976 31.9974 25.7042 32.0164 25.5177 31.9793C25.3311 31.9422 25.1598 31.8505 25.0253 31.716L24 30.692L22.9747 31.716C22.8402 31.8505 22.6689 31.9422 22.4823 31.9793C22.2958 32.0164 22.1024 31.9974 21.9267 31.9246C21.751 31.8518 21.6008 31.7285 21.4952 31.5703C21.3896 31.4122 21.3332 31.2262 21.3333 31.036V25.9253C20.3165 25.3411 19.5213 24.437 19.0718 23.3538C18.6222 22.2706 18.5434 21.0692 18.8477 19.9366C19.152 18.804 19.8223 17.8038 20.7542 17.0918C21.6861 16.3798 22.8272 15.996 24 16C24.4507 16.0056 24.8989 16.0693 25.3333 16.1893V6.66667C25.3333 5.6058 24.9119 4.58839 24.1618 3.83824C23.4116 3.08809 22.3942 2.66667 21.3333 2.66667H10.6667C9.6058 2.66667 8.58839 3.08809 7.83824 3.83824C7.08809 4.58839 6.66667 5.6058 6.66667 6.66667V22.6667C6.66667 23.7275 7.08809 24.7449 7.83824 25.4951C8.58839 26.2452 9.6058 26.6667 10.6667 26.6667H17.3333C17.687 26.6667 18.0261 26.8071 18.2761 27.0572C18.5262 27.3072 18.6667 27.6464 18.6667 28C18.6667 28.3536 18.5262 28.6928 18.2761 28.9428C18.0261 29.1929 17.687 29.3333 17.3333 29.3333H10.6667C8.89921 29.3312 7.20474 28.6282 5.95496 27.3784C4.70518 26.1286 4.00212 24.4341 4 22.6667V6.66667C4.00212 4.89921 4.70518 3.20474 5.95496 1.95496C7.20474 0.705176 8.89921 0.00211714 10.6667 0L21.3333 0C23.1008 0.00211714 24.7953 0.705176 26.045 1.95496C27.2948 3.20474 27.9979 4.89921 28 6.66667V17.8427C28.5223 18.4292 28.9068 19.1251 29.1254 19.8794C29.3439 20.6338 29.391 21.4275 29.2632 22.2024C29.1354 22.9772 28.8358 23.7137 28.3866 24.3579C27.9373 25.0021 27.3497 25.5376 26.6667 25.9253ZM26.6667 21.3333C26.6667 20.8059 26.5103 20.2903 26.2173 19.8518C25.9242 19.4133 25.5078 19.0715 25.0205 18.8697C24.5332 18.6678 23.997 18.615 23.4798 18.7179C22.9625 18.8208 22.4873 19.0748 22.1144 19.4477C21.7414 19.8207 21.4875 20.2958 21.3846 20.8131C21.2817 21.3304 21.3345 21.8666 21.5363 22.3538C21.7382 22.8411 22.0799 23.2576 22.5185 23.5506C22.957 23.8436 23.4726 24 24 24C24.7072 24 25.3855 23.719 25.8856 23.219C26.3857 22.7189 26.6667 22.0406 26.6667 21.3333Z" fill="#365F7B"/>
</svg>
