<svg width="40" height="40" viewBox="0 0 40 40" fill="none"
  xmlns="http://www.w3.org/2000/svg">
  <mask id="path-1-inside-1_839_10048" fill="white">
    <path
       d="M29.082 37.9166C27.1987 37.9166 25.2154 37.4666 23.1654 36.6C21.1654 35.75 19.1487 34.5833 17.182 33.1666C15.232 31.7333 13.3487 30.1333 11.5654 28.3833C9.7987 26.6 8.1987 24.7166 6.78203 22.7833C5.3487 20.7833 4.1987 18.7833 3.38203 16.85C2.51536 14.7833 2.08203 12.7833 2.08203 10.9C2.08203 9.59998 2.31536 8.36665 2.76536 7.21665C3.23203 6.03331 3.98203 4.93331 4.9987 3.98331C6.28203 2.71665 7.7487 2.08331 9.31537 2.08331C9.96537 2.08331 10.632 2.23331 11.1987 2.49998C11.8487 2.79998 12.3987 3.24998 12.7987 3.84998L16.6654 9.29998C17.0154 9.78331 17.282 10.25 17.4654 10.7166C17.682 11.2166 17.7987 11.7166 17.7987 12.2C17.7987 12.8333 17.6154 13.45 17.2654 14.0333C17.0154 14.4833 16.632 14.9666 16.1487 15.45L15.0154 16.6333C15.032 16.6833 15.0487 16.7166 15.0654 16.75C15.2654 17.1 15.6654 17.7 16.432 18.6C17.2487 19.5333 18.0154 20.3833 18.782 21.1666C19.7654 22.1333 20.582 22.9 21.3487 23.5333C22.2987 24.3333 22.9154 24.7333 23.282 24.9166L23.2487 25L24.4654 23.8C24.982 23.2833 25.482 22.9 25.9654 22.65C26.882 22.0833 28.0487 21.9833 29.2154 22.4666C29.6487 22.65 30.1154 22.9 30.6154 23.25L36.1487 27.1833C36.7654 27.6 37.2154 28.1333 37.482 28.7666C37.732 29.4 37.8487 29.9833 37.8487 30.5666C37.8487 31.3666 37.6654 32.1666 37.3154 32.9166C36.9654 33.6666 36.532 34.3167 35.982 34.9166C35.032 35.9666 33.9987 36.7166 32.7987 37.2C31.6487 37.6666 30.3987 37.9166 29.082 37.9166ZM9.31537 4.58331C8.3987 4.58331 7.5487 4.98331 6.73203 5.78331C5.96536 6.49998 5.43203 7.28331 5.0987 8.13331C4.7487 8.99998 4.58203 9.91665 4.58203 10.9C4.58203 12.45 4.9487 14.1333 5.68203 15.8666C6.43203 17.6333 7.48203 19.4666 8.81536 21.3C10.1487 23.1333 11.6654 24.9166 13.332 26.6C14.9987 28.25 16.7987 29.7833 18.6487 31.1333C20.4487 32.45 22.2987 33.5166 24.132 34.2833C26.982 35.5 29.6487 35.7833 31.8487 34.8666C32.6987 34.5166 33.4487 33.9833 34.132 33.2166C34.5154 32.8 34.8154 32.35 35.0654 31.8166C35.2654 31.4 35.3654 30.9666 35.3654 30.5333C35.3654 30.2666 35.3154 30 35.182 29.7C35.132 29.6 35.032 29.4166 34.7154 29.2L29.182 25.2666C28.8487 25.0333 28.5487 24.8666 28.2654 24.75C27.8987 24.6 27.7487 24.45 27.182 24.8C26.8487 24.9666 26.5487 25.2166 26.2154 25.55L24.9487 26.8C24.2987 27.4333 23.2987 27.5833 22.532 27.3L22.082 27.1C21.3987 26.7333 20.5987 26.1666 19.7154 25.4166C18.9154 24.7333 18.0487 23.9333 16.9987 22.9C16.182 22.0666 15.3654 21.1833 14.5154 20.2C13.732 19.2833 13.1654 18.5 12.8154 17.85L12.6154 17.35C12.5154 16.9666 12.482 16.75 12.482 16.5166C12.482 15.9166 12.6987 15.3833 13.1154 14.9666L14.3654 13.6666C14.6987 13.3333 14.9487 13.0166 15.1154 12.7333C15.2487 12.5166 15.2987 12.3333 15.2987 12.1666C15.2987 12.0333 15.2487 11.8333 15.1654 11.6333C15.0487 11.3666 14.8654 11.0666 14.632 10.75L10.7654 5.28331C10.5987 5.04998 10.3987 4.88331 10.1487 4.76665C9.88203 4.64998 9.5987 4.58331 9.31537 4.58331ZM23.432 24.9833C23.3487 24.9666 23.4654 24.95 23.432 24.9833V24.9833Z" />
       </mask>
    <path
    d="M22.499 24.6234L22.049 25.7901L23.915 26.5099L24.365 25.3432L22.499 24.6234ZM23.1654 36.6L22.3831 38.4406L22.3866 38.4421L23.1654 36.6ZM17.182 33.1666L15.9975 34.7781L16.0053 34.7838L16.0131 34.7895L17.182 33.1666ZM11.5654 28.3833L10.1445 29.7909L10.1545 29.8009L10.1646 29.8108L11.5654 28.3833ZM6.78203 22.7833L5.1564 23.9484L5.16254 23.9569L5.16878 23.9654L6.78203 22.7833ZM3.38203 16.85L1.53764 17.6234L1.53966 17.6282L3.38203 16.85ZM2.76536 7.21665L0.904812 6.48291L0.902879 6.48785L2.76536 7.21665ZM4.9987 3.98331L6.36419 5.44463L6.38417 5.42595L6.40364 5.40674L4.9987 3.98331ZM11.1987 2.49998L10.3471 4.30962L10.3538 4.31278L10.3606 4.3159L11.1987 2.49998ZM12.7987 3.84998L11.1346 4.95938L11.1507 4.98356L11.1675 5.00726L12.7987 3.84998ZM16.6654 9.29998L15.0342 10.4573L15.0398 10.4652L15.0455 10.473L16.6654 9.29998ZM17.4654 10.7166L15.6039 11.448L15.6165 11.4801L15.6303 11.5119L17.4654 10.7166ZM17.2654 14.0333L15.5504 13.0043L15.5332 13.0329L15.517 13.062L17.2654 14.0333ZM16.1487 15.45L14.7345 14.0358L14.7192 14.051L14.7043 14.0666L16.1487 15.45ZM15.0154 16.6333L13.571 15.2499L12.7365 16.1212L13.118 17.2658L15.0154 16.6333ZM15.0654 16.75L13.2765 17.6444L13.3013 17.6941L13.3289 17.7423L15.0654 16.75ZM16.432 18.6L14.9095 19.8969L14.9181 19.907L14.9269 19.917L16.432 18.6ZM18.782 21.1666L17.3527 22.5656L17.3662 22.5794L17.38 22.5929L18.782 21.1666ZM21.3487 23.5333L22.637 22.0035L22.6297 21.9974L22.6225 21.9914L21.3487 23.5333ZM23.282 24.9166L25.139 25.6594L25.8225 23.9508L24.1765 23.1278L23.282 24.9166ZM23.2487 25L21.3918 24.2572L24.6531 26.4239L23.2487 25ZM24.4654 23.8L25.8698 25.2239L25.8796 25.2142L24.4654 23.8ZM25.9654 22.65L26.8842 24.4264L26.952 24.3913L27.017 24.3512L25.9654 22.65ZM29.2154 22.4666L29.9946 20.6247L29.9878 20.6218L29.9808 20.6189L29.2154 22.4666ZM30.6154 23.25L31.7741 21.6199L31.7682 21.6157L31.7623 21.6115L30.6154 23.25ZM36.1487 27.1833L34.9899 28.8134L35.0093 28.8272L35.029 28.8405L36.1487 27.1833ZM37.482 28.7666L39.3423 28.0323L39.3341 28.0113L39.3253 27.9905L37.482 28.7666ZM35.982 34.9166L34.5077 33.5652L34.499 33.5748L35.982 34.9166ZM32.7987 37.2L32.0515 35.3448L32.0467 35.3468L32.7987 37.2ZM6.73203 5.78331L8.0978 7.24437L8.11488 7.2284L8.13159 7.21203L6.73203 5.78331ZM5.0987 8.13331L6.95318 8.88224L6.95696 8.87288L6.96064 8.86349L5.0987 8.13331ZM5.68203 15.8666L3.8401 16.6459L3.84106 16.6482L5.68203 15.8666ZM13.332 26.6L11.9108 28.0071L11.9178 28.0142L11.9249 28.0213L13.332 26.6ZM18.6487 31.1333L19.8295 29.5191L19.8276 29.5177L18.6487 31.1333ZM24.132 34.2833L24.9173 32.4439L24.9105 32.441L24.9036 32.4382L24.132 34.2833ZM31.8487 34.8666L31.0872 33.0173L31.0795 33.0205L31.8487 34.8666ZM34.132 33.2166L32.6602 31.8625L32.6495 31.8741L32.639 31.8859L34.132 33.2166ZM35.0654 31.8166L33.2623 30.9512L33.2583 30.9595L33.2544 30.9678L35.0654 31.8166ZM35.182 29.7L37.0097 28.8877L36.9912 28.8462L36.9709 28.8056L35.182 29.7ZM34.7154 29.2L33.5566 30.8301L33.5712 30.8405L33.586 30.8506L34.7154 29.2ZM29.182 25.2666L30.3408 23.6365L30.3349 23.6323L30.329 23.6282L29.182 25.2666ZM28.2654 24.75L29.0269 22.9006L29.0226 22.8989L28.2654 24.75ZM27.182 24.8L28.0765 26.5888L28.1567 26.5487L28.233 26.5016L27.182 24.8ZM26.2154 25.55L27.6202 26.9736L27.6296 26.9642L26.2154 25.55ZM24.9487 26.8L26.3445 28.2325L26.3535 28.2235L24.9487 26.8ZM22.532 27.3L21.7198 29.1276L21.7785 29.1537L21.8387 29.176L22.532 27.3ZM22.082 27.1L21.1364 28.8623L21.2019 28.8974L21.2698 28.9276L22.082 27.1ZM19.7154 25.4166L18.4164 26.9374L18.4209 26.9412L19.7154 25.4166ZM16.9987 22.9L15.5703 24.2998L15.5829 24.3128L15.5958 24.3255L16.9987 22.9ZM14.5154 20.2L12.9949 21.4993L13.0023 21.5079L14.5154 20.2ZM12.8154 17.85L10.9584 18.5928L11.0006 18.6982L11.0544 18.7982L12.8154 17.85ZM12.6154 17.35L10.6801 17.8548L10.7118 17.9762L10.7584 18.0928L12.6154 17.35ZM13.1154 14.9666L14.5296 16.3809L14.5434 16.367L14.557 16.3529L13.1154 14.9666ZM14.3654 13.6666L12.9512 12.2524L12.9373 12.2663L12.9237 12.2804L14.3654 13.6666ZM15.1154 12.7333L13.412 11.6851L13.4016 11.7021L13.3915 11.7193L15.1154 12.7333ZM15.1654 11.6333L17.0115 10.8641L17.0047 10.8478L16.9977 10.8317L15.1654 11.6333ZM14.632 10.75L12.9992 11.9049L13.0104 11.9208L13.0219 11.9364L14.632 10.75ZM10.7654 5.28331L12.3982 4.12837L12.3928 4.12084L10.7654 5.28331ZM10.1487 4.76665L10.9945 2.95428L10.9725 2.94404L10.9503 2.93433L10.1487 4.76665ZM23.432 24.9833L23.0398 26.9445L24.0894 27.1544L24.8462 26.3975L23.432 24.9833ZM29.082 35.9166C27.518 35.9166 25.8004 35.5426 23.9442 34.7578L22.3866 38.4421C24.6303 39.3907 26.8794 39.9166 29.082 39.9166V35.9166ZM23.9476 34.7593C22.105 33.9762 20.2171 32.8881 18.351 31.5438L16.0131 34.7895C18.0803 36.2786 20.2257 37.5237 22.3831 38.4406L23.9476 34.7593ZM18.3666 31.5552C16.4934 30.1783 14.6823 28.6399 12.9662 26.9558L10.1646 29.8108C12.0151 31.6268 13.9707 33.2883 15.9975 34.7781L18.3666 31.5552ZM12.9862 26.9758C11.2897 25.2633 9.75395 23.4554 8.39528 21.6012L5.16878 23.9654C6.64344 25.9779 8.30767 27.9367 10.1445 29.7909L12.9862 26.9758ZM8.40767 21.6183C7.0444 19.716 5.97343 17.8449 5.2244 16.0717L1.53966 17.6282C2.42396 19.7217 3.653 21.8506 5.1564 23.9484L8.40767 21.6183ZM5.22642 16.0765C4.44482 14.2127 4.08203 12.4756 4.08203 10.9H0.0820312C0.0820312 13.091 0.585911 15.3539 1.53764 17.6234L5.22642 16.0765ZM4.08203 10.9C4.08203 9.84344 4.27086 8.85776 4.62785 7.94545L0.902879 6.48785C0.359871 7.87553 0.0820312 9.35652 0.0820312 10.9H4.08203ZM4.62591 7.95038C4.9782 7.05708 5.55344 6.20221 6.36419 5.44463L3.63321 2.522C2.41063 3.66441 1.48587 5.00954 0.904819 6.48291L4.62591 7.95038ZM6.40364 5.40674C7.36212 4.46071 8.34021 4.08331 9.31537 4.08331V0.083313C7.15718 0.083313 5.20194 0.972586 3.59376 2.55989L6.40364 5.40674ZM9.31537 4.08331C9.67438 4.08331 10.0499 4.16976 10.3471 4.30962L12.0503 0.690342C11.2141 0.296861 10.2563 0.083313 9.31537 0.083313V4.08331ZM10.3606 4.3159C10.7024 4.47367 10.9554 4.69055 11.1346 4.95938L14.4628 2.74058C13.842 1.8094 12.995 1.12629 12.0368 0.684061L10.3606 4.3159ZM11.1675 5.00726L15.0342 10.4573L18.2965 8.1427L14.4299 2.6927L11.1675 5.00726ZM15.0455 10.473C15.3213 10.8539 15.4958 11.173 15.6039 11.448L19.3269 9.98534C19.0682 9.32701 18.7094 8.7127 18.2852 8.12696L15.0455 10.473ZM15.6303 11.5119C15.7593 11.8096 15.7987 12.0387 15.7987 12.2H19.7987C19.7987 11.3946 19.6048 10.6237 19.3005 9.92143L15.6303 11.5119ZM15.7987 12.2C15.7987 12.4321 15.7349 12.6968 15.5504 13.0043L18.9804 15.0623C19.4959 14.2031 19.7987 13.2345 19.7987 12.2H15.7987ZM15.517 13.062C15.3839 13.3018 15.1317 13.6386 14.7345 14.0358L17.5629 16.8642C18.1324 16.2947 18.6469 15.6648 19.0137 15.0046L15.517 13.062ZM14.7043 14.0666L13.571 15.2499L16.4598 18.0167L17.5931 16.8334L14.7043 14.0666ZM13.118 17.2658C13.1823 17.4586 13.2535 17.5984 13.2765 17.6444L16.8542 15.8556C16.844 15.8351 16.8553 15.857 16.868 15.8856C16.8835 15.9205 16.899 15.9597 16.9127 16.0009L13.118 17.2658ZM13.3289 17.7423C13.6059 18.2271 14.0852 18.9292 14.9095 19.8969L17.9545 17.303C17.2456 16.4708 16.9248 15.9728 16.8019 15.7577L13.3289 17.7423ZM14.9269 19.917C15.7537 20.8619 16.5483 21.7437 17.3527 22.5656L20.2114 19.7677C19.4825 19.023 18.7437 18.2047 17.9372 17.283L14.9269 19.917ZM17.38 22.5929C18.3749 23.571 19.2405 24.386 20.0749 25.0752L22.6225 21.9914C21.9235 21.414 21.1558 20.6956 20.1841 19.7404L17.38 22.5929ZM20.0604 25.0631C21.0654 25.9095 21.8196 26.4215 22.3876 26.7055L24.1765 23.1278C24.0111 23.0451 23.532 22.7572 22.637 22.0035L20.0604 25.0631ZM21.4251 24.1739L21.3918 24.2572L25.1056 25.7428L25.139 25.6594L21.4251 24.1739ZM24.6531 26.4239L25.8698 25.2239L23.0609 22.376L21.8443 23.576L24.6531 26.4239ZM25.8796 25.2142C26.2972 24.7965 26.6341 24.5558 26.8842 24.4264L25.0465 20.8735C24.33 21.2442 23.6668 21.7701 23.0512 22.3858L25.8796 25.2142ZM27.017 24.3512C27.3456 24.148 27.8312 24.058 28.4499 24.3144L29.9808 20.6189C28.2662 19.9086 26.4184 20.0186 24.9137 20.9488L27.017 24.3512ZM28.4361 24.3086C28.7398 24.4371 29.0833 24.6188 29.4684 24.8884L31.7623 21.6115C31.1474 21.1811 30.5576 20.8629 29.9946 20.6247L28.4361 24.3086ZM29.4566 24.8801L34.9899 28.8134L37.3075 25.5532L31.7741 21.6199L29.4566 24.8801ZM35.029 28.8405C35.3537 29.0599 35.536 29.2987 35.6388 29.5428L39.3253 27.9905C38.8947 26.968 38.177 26.1401 37.2684 25.5261L35.029 28.8405ZM35.6217 29.501C35.7919 29.932 35.8487 30.2665 35.8487 30.5666H39.8487C39.8487 29.7001 39.6722 28.8679 39.3423 28.0323L35.6217 29.501ZM35.8487 30.5666C35.8487 31.0599 35.7357 31.5722 35.503 32.0709L39.1277 33.7624C39.595 32.7611 39.8487 31.6734 39.8487 30.5666H35.8487ZM35.503 32.0709C35.2378 32.6392 34.9176 33.1181 34.5077 33.5652L37.4563 36.2681C38.1465 35.5152 38.693 34.6941 39.1277 33.7624L35.503 32.0709ZM34.499 33.5748C33.7248 34.4305 32.9349 34.989 32.0515 35.3448L33.5459 39.0552C35.0625 38.4443 36.3393 37.5028 37.4651 36.2585L34.499 33.5748ZM32.0467 35.3468C31.1368 35.716 30.1423 35.9166 29.082 35.9166V39.9166C30.6551 39.9166 32.1606 39.6173 33.5507 39.0532L32.0467 35.3468ZM9.31537 2.58331C7.74394 2.58331 6.41716 3.29204 5.33247 4.3546L8.13159 7.21203C8.68024 6.67458 9.05346 6.58331 9.31537 6.58331V2.58331ZM5.36626 4.32226C4.39926 5.2262 3.68734 6.25415 3.23675 7.40314L6.96064 8.86349C7.17673 8.31248 7.53147 7.77376 8.0978 7.24437L5.36626 4.32226ZM3.24421 7.38439C2.78967 8.50993 2.58203 9.6835 2.58203 10.9H6.58203C6.58203 10.1498 6.70773 9.49004 6.95318 8.88224L3.24421 7.38439ZM2.58203 10.9C2.58203 12.7619 3.02118 14.7103 3.8401 16.6459L7.52397 15.0874C6.87622 13.5563 6.58203 12.1381 6.58203 10.9H2.58203ZM3.84106 16.6482C4.65767 18.5718 5.78708 20.5365 7.19789 22.4763L10.4328 20.1236C9.17698 18.3968 8.20639 16.6949 7.52301 15.0851L3.84106 16.6482ZM7.19789 22.4763C8.59213 24.3934 10.1747 26.2537 11.9108 28.0071L14.7533 25.1928C13.156 23.5796 11.7053 21.8732 10.4328 20.1236L7.19789 22.4763ZM11.9249 28.0213C13.6617 29.7407 15.5378 31.3391 17.4698 32.7489L19.8276 29.5177C18.0596 28.2275 16.3357 26.7593 14.7391 25.1787L11.9249 28.0213ZM17.4679 32.7475C19.3768 34.1439 21.3629 35.2931 23.3604 36.1285L24.9036 32.4382C23.2345 31.7401 21.5206 30.7561 19.8295 29.5191L17.4679 32.7475ZM23.3468 36.1227C26.4633 37.4532 29.7291 37.9165 32.6179 36.7128L31.0795 33.0205C29.5683 33.6502 27.5007 33.5468 24.9173 32.4439L23.3468 36.1227ZM32.6102 36.716C33.758 36.2434 34.7535 35.5252 35.6251 34.5474L32.639 31.8859C32.1439 32.4414 31.6394 32.7899 31.0872 33.0173L32.6102 36.716ZM35.6039 34.5708C36.1309 33.998 36.5432 33.3761 36.8763 32.6655L33.2544 30.9678C33.0875 31.3239 32.8999 31.602 32.6602 31.8625L35.6039 34.5708ZM36.8684 32.6821C37.1919 32.0082 37.3654 31.2802 37.3654 30.5333H33.3654C33.3654 30.6531 33.3389 30.7917 33.2623 30.9512L36.8684 32.6821ZM37.3654 30.5333C37.3654 29.9871 37.2567 29.4437 37.0097 28.8877L33.3544 30.5123C33.3618 30.529 33.3654 30.5391 33.3668 30.5434C33.3681 30.5475 33.3679 30.5475 33.3672 30.5441C33.3665 30.5408 33.3659 30.5369 33.3655 30.5333C33.3652 30.5299 33.3654 30.5295 33.3654 30.5333H37.3654ZM36.9709 28.8056C36.801 28.4657 36.4957 27.9948 35.8447 27.5494L33.586 30.8506C33.6055 30.864 33.5678 30.8411 33.5092 30.7704C33.4807 30.736 33.4539 30.6984 33.4301 30.6598C33.4067 30.6218 33.3922 30.5924 33.3932 30.5944L36.9709 28.8056ZM35.8741 27.5699L30.3408 23.6365L28.0233 26.8968L33.5566 30.8301L35.8741 27.5699ZM30.329 23.6282C29.9008 23.3285 29.4721 23.084 29.0269 22.9006L27.5039 26.5993C27.6253 26.6493 27.7966 26.7381 28.0351 26.9051L30.329 23.6282ZM29.0226 22.8989C29.0058 22.892 28.9878 22.8841 28.9438 22.8648C28.9093 22.8495 28.8381 22.8179 28.7616 22.7874C28.6006 22.7233 28.3197 22.6232 27.9603 22.594C27.1798 22.5307 26.5559 22.836 26.131 23.0984L28.233 26.5016C28.2962 26.4625 28.2653 26.4898 28.1653 26.5228C28.044 26.5628 27.859 26.5989 27.6371 26.5809C27.4319 26.5643 27.2926 26.5079 27.2806 26.5031C27.2786 26.5024 27.2837 26.5043 27.3297 26.5246C27.3664 26.5408 27.4332 26.5704 27.5081 26.6011L29.0226 22.8989ZM26.2876 23.0111C25.6705 23.3197 25.1916 23.7453 24.8012 24.1358L27.6296 26.9642C27.9058 26.688 28.0269 26.6136 28.0765 26.5888L26.2876 23.0111ZM24.8105 24.1264L23.5439 25.3764L26.3535 28.2235L27.6202 26.9735L24.8105 24.1264ZM23.553 25.3675C23.5401 25.38 23.4969 25.4125 23.4103 25.429C23.318 25.4465 23.2469 25.432 23.2253 25.424L21.8387 29.176C23.2652 29.7031 25.0948 29.45 26.3444 28.2324L23.553 25.3675ZM23.3443 25.4724L22.8943 25.2724L21.2698 28.9276L21.7198 29.1276L23.3443 25.4724ZM23.0277 25.3377C22.5106 25.0602 21.8292 24.5878 21.0098 23.8921L18.4209 26.9412C19.3682 27.7455 20.2868 28.4064 21.1364 28.8623L23.0277 25.3377ZM21.0143 23.8959C20.2588 23.2506 19.4274 22.4841 18.4016 21.4745L15.5958 24.3255C16.67 25.3826 17.5719 26.2161 18.4164 26.9374L21.0143 23.8959ZM18.4271 21.5001C17.6392 20.6961 16.8508 19.8435 16.0284 18.8921L13.0023 21.5079C13.8799 22.5232 14.7248 23.4371 15.5703 24.2998L18.4271 21.5001ZM16.0358 18.9007C15.2947 18.0334 14.8301 17.3731 14.5763 16.9018L11.0544 18.7982C11.5006 19.6269 12.1694 20.5332 12.9949 21.4993L16.0358 18.9007ZM14.6723 17.1072L14.4723 16.6072L10.7584 18.0928L10.9584 18.5928L14.6723 17.1072ZM14.5506 16.8451C14.5088 16.6851 14.493 16.6047 14.4865 16.5635C14.4819 16.5349 14.482 16.5272 14.482 16.5166H10.482C10.482 16.9912 10.5597 17.3933 10.6801 17.8548L14.5506 16.8451ZM14.482 16.5166C14.482 16.4604 14.4915 16.4352 14.4942 16.4284C14.4967 16.4224 14.5034 16.407 14.5296 16.3809L11.7012 13.5524C10.8986 14.355 10.482 15.4017 10.482 16.5166H14.482ZM14.557 16.3529L15.807 15.0529L12.9237 12.2804L11.6737 13.5804L14.557 16.3529ZM15.7796 15.0809C16.2 14.6605 16.5661 14.2118 16.8392 13.7474L13.3915 11.7193C13.3313 11.8215 13.1974 12.0061 12.9512 12.2524L15.7796 15.0809ZM16.8187 13.7815C17.1068 13.3133 17.2987 12.7717 17.2987 12.1666H13.2987C13.2987 12.0436 13.3181 11.9309 13.3473 11.8371C13.3752 11.7475 13.4054 11.6959 13.412 11.6851L16.8187 13.7815ZM17.2987 12.1666C17.2987 11.6553 17.1407 11.1742 17.0115 10.8641L13.3192 12.4025C13.3261 12.419 13.3265 12.4241 13.323 12.4101C13.321 12.4021 13.316 12.3808 13.311 12.3469C13.3064 12.3156 13.2987 12.253 13.2987 12.1666H17.2987ZM16.9977 10.8317C16.8011 10.3825 16.5274 9.95065 16.2421 9.56358L13.0219 11.9364C13.2034 12.1826 13.2962 12.3508 13.3331 12.435L16.9977 10.8317ZM16.2649 9.59505L12.3982 4.12838L9.13253 6.43824L12.9992 11.9049L16.2649 9.59505ZM12.3928 4.12084C12.031 3.61429 11.5645 3.22029 10.9945 2.95428L9.30293 6.57901C9.27931 6.56799 9.24314 6.54715 9.20484 6.5151C9.16693 6.48339 9.14513 6.45591 9.1379 6.44579L12.3928 4.12084ZM10.9503 2.93433C10.4671 2.72292 9.91159 2.58331 9.31537 2.58331V6.58331C9.3001 6.58331 9.29514 6.58153 9.30134 6.58292C9.30774 6.58435 9.32336 6.58859 9.34706 6.59896L10.9503 2.93433ZM23.8243 23.0222C23.8687 23.031 24.0024 23.0588 24.1672 23.1263C24.2484 23.1595 24.4029 23.2286 24.5751 23.353C24.7224 23.4594 25.0705 23.7395 25.2683 24.2536C25.3753 24.532 25.4282 24.8568 25.388 25.2018C25.3483 25.5421 25.2273 25.8255 25.0899 26.0418C24.837 26.4399 24.5136 26.6393 24.371 26.718C24.0706 26.8839 23.803 26.9292 23.6961 26.9445C23.5541 26.9648 23.3989 26.9709 23.2343 26.9552C23.1052 26.9428 22.7841 26.9014 22.4323 26.6978C22.2419 26.5875 21.9752 26.3903 21.7599 26.0588C21.5279 25.7016 21.4161 25.2789 21.4418 24.8528C21.4656 24.4573 21.6009 24.1548 21.7101 23.9681C21.8198 23.7805 21.9385 23.6484 22.0178 23.5691L24.8462 26.3975C24.9297 26.3141 25.0514 26.1782 25.1631 25.9872C25.2743 25.797 25.4106 25.4915 25.4346 25.0933C25.4604 24.6645 25.3479 24.2395 25.1146 23.8802C24.898 23.5466 24.6293 23.3477 24.4364 23.2361C24.0797 23.0295 23.7518 22.9864 23.6151 22.9734C23.443 22.9569 23.2798 22.9633 23.1304 22.9847C23.0163 23.001 22.7422 23.0481 22.4374 23.2164C22.2927 23.2963 21.9676 23.4971 21.7137 23.8967C21.5758 24.1137 21.4546 24.3979 21.4148 24.7389C21.3745 25.0847 21.4275 25.4103 21.5349 25.6896C21.7333 26.2054 22.0829 26.4872 22.2328 26.5955C22.4076 26.7218 22.5657 26.7928 22.6517 26.8281C22.8263 26.8995 22.9745 26.9314 23.0398 26.9445L23.8243 23.0222Z"
     fill="#05AEB5" mask="url(#path-1-inside-1_839_10048)" />
      </svg>