<svg width="32" height="32" viewBox="0 0 32 32" fill="none" xmlns="http://www.w3.org/2000/svg">
  <path d="M15.9998 2.66699C8.63984 2.66699 2.6665 8.64033 2.6665 16.0003C2.6665 23.3603 8.63984 29.3337 15.9998 29.3337C23.3598 29.3337 29.3332 23.3603 29.3332 16.0003C29.3332 8.64033 23.3598 2.66699 15.9998 2.66699ZM22.1865 11.7337C21.9865 13.8403 21.1198 18.9603 20.6798 21.3203C20.4932 22.3203 20.1198 22.6537 19.7732 22.6937C18.9998 22.7603 18.4132 22.187 17.6665 21.6937C16.4932 20.9203 15.8265 20.4403 14.6932 19.6937C13.3732 18.827 14.2265 18.347 14.9865 17.5737C15.1865 17.3737 18.5998 14.267 18.6665 13.987C18.6758 13.9446 18.6745 13.9006 18.6629 13.8587C18.6513 13.8169 18.6296 13.7786 18.5998 13.747C18.5198 13.6803 18.4132 13.707 18.3198 13.7203C18.1998 13.747 16.3332 14.987 12.6932 17.4403C12.1598 17.8003 11.6798 17.987 11.2532 17.9737C10.7732 17.9603 9.8665 17.707 9.1865 17.4803C8.3465 17.2137 7.69317 17.067 7.7465 16.6003C7.77317 16.3603 8.1065 16.1203 8.73317 15.867C12.6265 14.1737 15.2132 13.0537 16.5065 12.5203C20.2132 10.9737 20.9732 10.707 21.4798 10.707C21.5865 10.707 21.8398 10.7337 21.9998 10.867C22.1332 10.9737 22.1732 11.1203 22.1865 11.227C22.1732 11.307 22.1998 11.547 22.1865 11.7337Z" fill="white" />
</svg>